<?xml version="1.0" standalone="no"?>
<!DOCTYPE svg PUBLIC "-//W3C//DTD SVG 20010904//EN"
 "http://www.w3.org/TR/2001/REC-SVG-20010904/DTD/svg10.dtd">
<svg version="1.0" xmlns="http://www.w3.org/2000/svg"
 width="2173.000000pt" height="763.000000pt" viewBox="0 0 2173.000000 763.000000"
 preserveAspectRatio="xMidYMid meet">

<g transform="translate(0.000000,763.000000) scale(0.100000,-0.100000)"
fill="#000000" stroke="none">
<path d="M0 4366 l0 -3263 67 -6 c38 -3 85 -13 107 -22 29 -12 57 -15 120 -10
44 3 149 10 231 15 83 6 211 14 285 20 143 10 334 23 620 41 96 6 227 15 290
20 175 14 950 24 950 12 0 -21 -58 -36 -145 -39 -49 -2 -115 -8 -145 -13 -90
-17 -216 -31 -360 -41 -152 -10 -173 -15 -166 -39 3 -9 -3 -32 -12 -51 l-17
-35 -95 -7 c-121 -9 -509 -15 -577 -8 -60 6 -90 34 -51 49 l23 8 -25 8 c-14 5
-128 7 -255 5 -126 -2 -302 -3 -390 -1 -150 2 -163 1 -187 -18 -26 -21 -26
-22 -10 -62 21 -53 9 -65 -85 -80 -89 -14 -92 -12 -128 82 -15 38 -31 71 -36
75 -5 3 -9 -197 -9 -501 l0 -505 1458 3 c1976 4 2333 5 2402 8 14 0 94 0 178
0 179 -2 195 3 187 57 -8 56 3 66 87 70 40 2 77 8 83 13 5 5 28 9 52 9 37 0
44 4 58 31 15 29 18 30 34 15 10 -9 25 -16 34 -16 17 0 32 34 22 50 -3 5 -51
23 -106 41 -84 26 -111 31 -162 26 -39 -3 -65 -11 -73 -21 -14 -20 -40 -21
-47 -1 -4 8 -3 37 0 64 4 38 11 52 25 57 11 3 89 3 174 -1 l154 -7 43 43 c23
24 50 59 60 77 l17 34 84 -7 c99 -8 127 2 160 61 21 37 24 39 71 39 l50 0 -3
-221 c-3 -209 -2 -223 18 -256 11 -20 20 -40 19 -44 -4 -22 2 -34 16 -34 8 0
14 5 13 12 -2 8 10 11 37 10 30 -1 35 1 20 7 -19 8 -19 8 3 15 12 4 22 12 22
18 0 10 -7 9 -62 -9 -20 -6 -24 12 -5 24 6 4 30 10 52 13 38 5 40 7 43 45 2
22 8 42 13 46 5 3 48 4 95 2 l85 -3 44 43 c45 43 80 55 89 31 4 -10 20 -12 63
-8 32 3 73 5 91 4 17 0 42 4 53 11 15 7 19 8 15 0 -5 -7 -1 -8 11 -4 23 9 43
28 43 42 0 15 43 52 55 47 6 -2 19 2 30 10 10 8 28 14 39 14 12 0 30 7 40 15
11 8 28 15 37 15 25 0 30 25 21 100 -5 51 -11 67 -28 75 -11 5 -19 15 -17 21
2 7 -3 14 -12 17 -26 11 -64 -11 -86 -48 -12 -19 -25 -35 -30 -35 -32 0 23 84
69 106 26 12 40 13 63 5 29 -10 29 -10 29 30 0 66 10 75 97 88 120 17 463 53
505 54 45 0 68 -17 68 -50 0 -13 7 -37 15 -54 10 -19 14 -41 10 -63 -4 -20 -1
-47 9 -69 15 -36 16 -37 68 -37 62 0 85 -21 69 -63 -12 -31 -30 -37 -89 -30
-78 9 -92 -4 -92 -85 -1 -69 -14 -102 -43 -102 -22 0 -67 -21 -67 -31 0 -15
45 -20 74 -9 16 6 41 19 57 30 36 26 83 34 377 64 134 14 248 29 255 33 7 4
39 8 72 8 56 0 60 2 69 28 7 19 6 41 -2 72 -17 64 -16 154 2 161 39 15 109
-66 130 -149 3 -13 15 -36 27 -50 17 -23 28 -27 74 -27 73 0 98 36 38 54 -12
4 -33 20 -47 37 -14 16 -34 29 -45 29 -27 0 -30 40 -3 40 92 3 152 15 152 31
0 5 9 9 20 9 11 0 20 5 20 11 0 5 5 7 10 4 15 -9 37 17 63 77 14 30 37 65 53
77 28 22 34 23 141 17 79 -4 120 -11 142 -23 l30 -18 44 49 c40 46 46 49 100
54 54 4 58 3 88 -29 55 -59 84 -158 63 -213 -11 -28 -32 -17 -39 22 -12 63
-33 105 -50 98 -12 -4 -14 0 -9 18 10 43 -59 72 -98 42 -21 -16 -68 -83 -68
-96 0 -6 -4 -10 -10 -10 -5 0 -10 -9 -10 -20 0 -11 -7 -23 -15 -26 -8 -4 -15
-12 -15 -20 0 -8 -4 -14 -8 -14 -5 0 -39 -28 -76 -63 -76 -72 -75 -87 9 -87
67 0 92 8 98 31 6 24 18 24 47 -1 13 -11 27 -20 32 -20 38 0 216 23 273 35 39
8 144 19 235 24 91 6 192 15 225 21 139 22 225 29 250 20 46 -18 69 -120 49
-219 -11 -54 -35 -62 -257 -82 -455 -40 -573 -52 -603 -64 -20 -8 -39 -29 -56
-61 -30 -57 -49 -62 -59 -16 -4 19 -12 39 -19 45 -16 17 -169 13 -475 -12
-143 -12 -316 -26 -385 -31 -69 -6 -199 -17 -290 -25 -311 -27 -675 -54 -945
-70 -148 -8 -310 -20 -360 -26 -90 -11 -477 -27 -509 -21 -12 3 -15 10 -11 24
7 19 6 19 -24 3 -34 -17 -42 -45 -13 -45 10 0 22 -4 27 -9 11 -11 540 -14 785
-5 96 3 253 1 375 -7 278 -17 813 -14 1328 6 169 7 187 6 187 -9 0 -9 8 -16
20 -16 11 0 20 7 20 15 0 10 10 15 30 15 18 0 33 6 36 15 8 20 24 19 24 -1 0
-15 9 -16 75 -10 53 5 80 3 95 -6 16 -10 24 -10 40 0 23 14 54 16 46 3 -3 -5
4 -11 16 -14 23 -6 151 3 144 10 -3 3 17 24 44 48 55 49 122 78 170 73 30 -3
34 -7 46 -49 11 -37 21 -50 48 -63 19 -9 48 -16 64 -16 17 0 34 -4 37 -10 5
-7 306 -7 458 0 13 1 16 6 12 20 -4 13 0 20 14 25 10 3 21 12 24 19 4 9 32 16
79 21 40 4 99 16 132 26 32 11 70 19 85 19 43 0 213 39 235 54 33 21 144 55
236 71 47 8 105 19 130 25 85 18 126 13 150 -17 25 -32 21 -72 -11 -116 l-21
-29 45 -44 c40 -39 51 -44 90 -44 24 0 66 -8 93 -17 44 -15 129 -17 899 -20
532 -2 857 0 870 6 25 12 232 34 245 26 5 -3 7 -12 4 -20 -5 -12 140 -14 1058
-10 1299 4 1116 4 1893 2 358 -1 711 0 785 1 74 1 1268 0 2653 -3 l2517 -5 0
3815 0 3815 -5189 0 c-4667 0 -5190 -2 -5201 -15 -7 -9 -70 -45 -139 -80 -123
-63 -212 -127 -387 -281 -119 -104 -257 -184 -444 -257 -52 -21 -110 -44 -128
-52 -18 -8 -39 -15 -48 -15 -8 0 -43 -9 -77 -19 -63 -20 -156 -47 -257 -75
-30 -8 -144 -42 -254 -76 -207 -64 -233 -66 -207 -17 7 13 26 38 43 56 70 75
171 199 195 239 24 40 25 50 20 128 -5 69 -2 96 15 150 21 66 21 67 2 190
l-18 124 -1872 0 -1871 0 -6 -387 c-5 -368 -9 -423 -27 -423 -23 0 -26 151
-14 588 l7 222 -2937 0 -2936 0 0 -3264z m12219 3025 c23 -91 23 -130 1 -166
-15 -24 -29 -35 -46 -35 -13 0 -24 -4 -24 -10 0 -5 -16 -10 -36 -10 -27 0 -35
4 -31 14 3 8 1 16 -4 18 -14 5 -20 100 -7 115 6 7 8 26 6 43 -3 22 -1 30 11
31 12 0 13 2 2 6 -23 9 56 40 89 35 25 -3 31 -11 39 -41z m-329 -196 c0 -8 -7
-15 -15 -15 -8 0 -15 -7 -15 -15 0 -9 -9 -15 -25 -15 -16 0 -25 6 -25 15 0 8
5 15 11 15 6 0 17 7 25 15 9 8 22 15 30 15 8 0 14 -7 14 -15z m43 -72 c5 -26
4 -26 -9 -8 -16 22 -18 35 -5 35 5 0 11 -12 14 -27z m17 -62 c0 -5 3 -24 6
-42 4 -23 2 -29 -4 -19 -15 25 -23 70 -12 70 5 0 10 -4 10 -9z m-224 -38 c3
-16 8 -37 10 -48 5 -20 5 -20 -10 -1 -14 17 -16 18 -16 3 0 -9 -4 -17 -10 -17
-5 0 -10 6 -10 14 0 8 -6 17 -12 20 -9 3 -7 10 7 22 16 13 16 15 3 11 -12 -4
-15 -2 -11 9 9 25 42 16 49 -13z m210 -79 c-14 -15 -29 -24 -33 -20 -4 4 6 18
22 31 39 30 46 23 11 -11z m-6323 0 c20 -4 37 -11 37 -17 0 -5 -14 -7 -34 -4
-19 3 -39 0 -45 -6 -6 -6 -11 -43 -11 -83 l0 -71 52 -6 c28 -4 55 -12 60 -19
5 -7 8 -56 8 -108 0 -91 3 -327 11 -865 3 -236 2 -250 -15 -253 -10 -2 -22 0
-26 5 -5 4 -11 141 -15 303 -4 162 -9 298 -11 301 -1 3 -4 43 -5 90 -1 46 -8
101 -15 123 -8 21 -14 49 -14 61 0 12 -8 37 -17 56 l-17 34 -8 -44 c-10 -57
-17 -64 -61 -56 -40 8 -47 26 -47 131 0 48 4 65 17 72 13 8 11 10 -10 10 l-27
0 0 -107 c0 -108 -8 -181 -19 -181 -3 0 -16 15 -28 33 -20 29 -23 46 -23 130
0 58 -4 97 -10 97 -6 0 -10 -29 -10 -66 0 -48 -3 -65 -12 -62 -7 3 -14 14 -16
26 -2 13 -11 22 -21 22 -15 0 -20 13 -27 73 -10 78 -5 74 -77 60 -34 -7 -107
15 -107 32 0 7 34 20 78 30 105 24 107 26 108 80 1 50 14 69 54 78 l25 6 -3
-76 c-4 -60 -2 -75 9 -71 10 4 14 26 14 84 0 77 1 79 28 88 15 5 27 15 27 21
0 16 30 42 55 48 30 7 105 8 148 1z m6376 -54 c-11 -29 -29 -32 -29 -5 0 11
23 33 37 35 1 0 -3 -13 -8 -30z m-109 -1 c7 -11 20 -29 31 -40 23 -23 26 -69
4 -69 -9 0 -15 -10 -15 -26 0 -16 -5 -24 -12 -22 -7 3 -17 -5 -23 -16 -8 -15
-22 -22 -50 -24 -43 -3 -62 14 -71 66 -6 29 24 92 43 92 6 0 22 13 35 29 27
36 43 38 58 10z m-5769 -63 c83 -18 158 -55 214 -107 55 -51 134 -165 145
-210 5 -19 16 -63 25 -99 37 -146 -13 -422 -112 -607 -57 -108 -95 -173 -101
-173 -4 0 -13 -14 -21 -31 -19 -44 -26 -27 -8 19 9 22 14 42 11 45 -6 6 16 56
38 86 10 13 18 33 18 45 0 12 4 26 8 31 13 15 49 119 73 210 13 51 23 126 26
206 5 112 3 136 -17 200 -27 93 -57 144 -112 196 -70 64 -125 91 -230 111 -52
11 -100 22 -107 26 -12 8 -15 49 -4 59 11 11 83 8 154 -7z m3869 -58 c0 -11 4
-17 8 -14 4 2 9 -11 10 -30 2 -19 -2 -34 -8 -34 -5 0 -10 5 -10 11 0 5 -5 7
-10 4 -12 -7 -25 24 -34 85 l-7 44 26 -24 c14 -13 25 -32 25 -42z m2505 18
c39 -17 41 -23 21 -51 -12 -17 -17 -18 -39 -6 -24 13 -40 12 -78 -3 -11 -5
-18 -1 -22 13 -6 25 -36 39 -46 22 -10 -15 -81 -27 -81 -13 0 9 36 29 80 45
31 11 132 7 165 -7z m-7890 -61 c28 -3 68 -10 90 -17 l40 -12 -30 -7 c-16 -3
-71 -7 -122 -8 -50 0 -94 -5 -97 -10 -6 -9 -63 -21 -117 -25 -31 -2 -55 -26
-66 -66 -3 -14 -13 -35 -21 -47 -9 -15 -10 -23 -3 -23 7 0 11 -19 11 -48 0
-40 -5 -53 -26 -71 -22 -19 -25 -28 -19 -58 11 -59 23 -71 66 -66 33 5 42 1
67 -25 46 -49 56 -132 21 -176 -38 -48 -107 -71 -284 -96 -38 -5 -106 -16
-150 -25 -44 -8 -102 -15 -128 -15 -37 0 -59 -7 -92 -30 -24 -16 -52 -30 -63
-30 -38 0 -92 30 -107 60 l-16 30 -22 -21 -22 -20 22 -19 c21 -17 22 -20 9
-52 -7 -18 -16 -52 -20 -76 -6 -40 -4 -43 21 -53 53 -21 58 -26 64 -65 4 -21
8 -288 10 -591 4 -645 16 -584 -117 -609 -270 -50 -668 -102 -697 -91 -10 4
-17 17 -17 31 0 19 6 25 33 30 38 7 391 43 492 50 167 12 202 23 190 60 -4 12
-10 39 -13 61 -9 51 -25 48 -34 -6 -4 -22 -12 -47 -18 -54 -11 -13 -57 -24
-129 -30 -20 -2 -67 -6 -106 -10 -109 -9 -283 -34 -359 -49 -98 -21 -159 -12
-195 29 l-29 33 -6 184 c-3 100 -11 326 -17 500 -6 174 -8 321 -4 327 3 6 21
19 38 28 38 19 201 63 238 63 46 0 49 11 49 212 0 180 1 188 22 208 12 11 34
20 49 20 55 0 59 6 59 85 0 58 4 77 21 99 18 23 28 27 63 24 39 -3 42 -5 56
-48 8 -25 16 -47 17 -49 1 -2 20 8 42 22 22 15 57 32 79 39 26 8 43 21 51 39
15 34 159 98 173 77 5 -8 2 -17 -9 -23 -9 -5 -25 -18 -35 -28 -17 -16 -18 -21
-5 -35 8 -9 21 -35 28 -56 11 -31 23 -43 56 -58 23 -10 58 -18 76 -16 l34 2
-14 43 c-24 69 -14 176 21 243 45 86 74 118 172 192 127 94 194 117 384 128
114 6 249 4 345 -5z m5402 -75 c-64 -41 -110 -64 -103 -51 8 12 127 81 140 81
6 0 -11 -13 -37 -30z m1027 -92 c8 -14 6 -22 -11 -40 -18 -18 -24 -19 -37 -8
-22 18 -20 -3 2 -23 17 -15 21 -14 55 14 l37 30 9 -24 c9 -24 12 -24 44 -13
19 6 43 18 52 26 14 12 19 12 22 3 3 -7 10 -13 16 -13 14 0 34 -41 43 -88 4
-19 13 -36 21 -39 8 -3 12 -12 9 -19 -3 -8 -1 -14 4 -14 5 0 7 -6 4 -14 -3 -8
1 -27 9 -43 21 -40 17 -88 -6 -86 -12 0 -16 -4 -13 -12 3 -8 2 -15 -2 -17 -4
-2 -15 -17 -24 -34 -15 -27 -15 -32 -2 -45 12 -13 12 -17 -1 -34 -13 -18 -14
-18 -15 -2 0 9 -3 17 -8 17 -4 0 -7 -33 -7 -72 0 -40 -3 -78 -7 -84 -5 -7 -2
-14 6 -17 12 -5 13 -13 6 -37 -5 -18 -13 -37 -19 -43 -6 -8 -4 -19 5 -31 8
-11 14 -30 14 -42 0 -12 7 -24 15 -28 17 -6 20 -42 5 -51 -8 -5 -7 -11 1 -21
9 -11 8 -14 -7 -15 -17 -1 -17 -2 -1 -6 19 -5 22 -18 7 -28 -5 -3 -10 -2 -10
3 0 5 -10 8 -22 6 -13 -1 -29 -3 -35 -3 -7 -1 -13 -8 -13 -16 0 -10 -10 -15
-29 -15 -17 0 -33 -5 -36 -10 -4 -6 -15 -8 -26 -5 -13 5 -19 2 -19 -10 0 -11
-6 -15 -19 -10 -15 4 -20 -1 -25 -26 -5 -27 -9 -31 -32 -26 -17 3 -28 0 -31
-10 -3 -8 -12 -12 -20 -9 -8 3 -11 1 -8 -4 4 -6 -2 -18 -11 -27 -13 -13 -19
-14 -22 -5 -2 6 -8 12 -13 12 -15 0 -46 36 -52 62 -8 31 -78 118 -94 118 -7 0
-29 -25 -50 -55 -32 -50 -37 -64 -41 -136 -5 -88 -14 -92 -47 -19 -16 36 -17
50 -7 132 6 50 9 95 6 100 -17 26 -90 -1 -150 -57 -53 -50 -70 -58 -93 -43
-12 7 -21 16 -21 19 0 13 72 61 113 75 23 8 64 34 91 58 l49 43 -18 26 c-9 15
-24 27 -31 27 -8 0 -14 7 -14 15 0 8 -4 15 -9 15 -5 0 -14 13 -21 30 -25 60
-110 183 -139 201 -37 23 -50 45 -57 106 -4 26 -17 66 -29 88 -22 38 -50 125
-62 190 -5 27 -4 29 11 16 14 -12 16 -11 16 8 0 12 6 21 15 21 8 0 15 7 15 15
0 9 7 18 16 22 8 3 13 11 10 19 -3 9 3 11 22 9 15 -2 37 -4 50 -4 15 -1 21 -5
16 -13 -5 -8 -2 -9 9 -5 19 7 20 6 11 -16 -4 -11 -15 -14 -40 -10 -31 5 -34 4
-34 -20 0 -24 -2 -26 -24 -17 -18 7 -29 4 -45 -11 -22 -21 -27 -44 -12 -54 5
-3 11 5 13 17 7 48 22 40 225 -112 24 -18 65 -39 92 -47 27 -7 52 -21 55 -30
9 -21 -12 -43 -40 -43 -12 0 -26 -5 -29 -10 -3 -6 -16 -8 -28 -5 -16 4 -32 -4
-59 -32 -92 -92 -94 -111 -12 -93 55 13 84 3 105 -36 7 -13 18 -24 26 -24 7 0
13 -5 13 -11 0 -8 4 -8 15 1 8 6 19 9 25 5 5 -3 10 2 10 11 0 17 1 16 13 -1 9
-12 16 -14 21 -7 4 6 13 9 21 5 8 -3 15 0 15 7 0 7 6 6 16 -4 19 -20 22 -20
42 0 23 24 27 0 5 -30 -10 -14 -23 -26 -30 -26 -7 0 -28 -13 -46 -30 -19 -16
-42 -30 -51 -30 -9 0 -16 -5 -16 -11 0 -8 -14 -10 -43 -6 -54 8 -75 -3 -50
-25 32 -28 61 -31 80 -9 12 15 29 21 59 21 30 0 58 10 100 35 33 20 77 40 99
46 71 18 149 41 174 50 l24 10 -22 23 c-13 13 -39 27 -59 30 -65 11 -102 12
-102 3 0 -4 -4 -5 -10 -2 -6 3 -10 -4 -10 -16 0 -22 0 -22 -21 -3 -16 15 -24
16 -39 6 -16 -10 -18 -9 -14 3 5 11 -1 15 -22 15 -16 0 -37 7 -48 15 -17 13
-17 15 7 41 14 14 28 44 31 65 3 20 12 44 20 51 17 18 5 52 -28 73 -13 9 -27
27 -30 40 -4 14 -16 33 -27 44 -16 15 -20 26 -15 46 4 15 2 33 -4 40 -15 19
-2 25 72 31 37 3 70 12 81 22 11 10 42 18 83 20 49 3 62 7 54 17 -5 6 -7 15
-3 19 11 11 35 3 47 -16z m-1214 -53 c0 -8 -2 -15 -4 -15 -2 0 -6 7 -10 15 -3
8 -1 15 4 15 6 0 10 -7 10 -15z m642 -60 c6 -14 15 -22 19 -19 5 3 6 -1 3 -9
-3 -9 3 -16 15 -20 21 -5 27 -32 13 -55 -11 -16 -138 74 -157 112 -15 28 -10
31 29 16 21 -8 26 -6 26 6 0 22 38 -1 52 -31z m-297 -65 c8 -16 15 -37 14 -47
0 -13 -3 -12 -11 7 -5 14 -14 33 -19 42 -10 20 -11 28 -4 28 2 0 11 -13 20
-30z m-115 -29 c0 -5 8 -12 18 -16 11 -3 24 -23 31 -46 8 -26 20 -43 32 -46
19 -5 27 -33 10 -33 -9 0 -29 23 -61 70 -8 12 -25 33 -37 46 -27 29 -28 34 -8
34 8 0 15 -4 15 -9z m510 -28 c0 -20 -24 -11 -28 10 -2 12 1 15 12 11 9 -3 16
-13 16 -21z m-576 1 c3 -8 2 -12 -4 -9 -6 3 -10 10 -10 16 0 14 7 11 14 -7z
m138 -124 c7 0 19 -9 26 -20 10 -16 10 -20 -1 -20 -17 0 -147 117 -147 132 0
6 24 -12 54 -41 30 -28 61 -51 68 -51z m3183 41 c39 -10 90 -22 114 -25 65
-10 155 -66 105 -66 -43 0 -162 -63 -216 -115 -32 -30 -61 -55 -65 -55 -5 0
-20 20 -36 44 -28 45 -134 156 -149 156 -15 0 -8 22 15 41 59 52 94 55 232 20z
m-3049 -84 c31 -3 27 -4 -18 -5 -32 -1 -58 0 -58 2 0 2 -3 13 -7 23 -7 17 -6
17 19 1 14 -9 43 -18 64 -21z m1044 -33 c0 -8 -4 -12 -10 -9 -5 3 -10 13 -10
21 0 8 5 12 10 9 6 -3 10 -13 10 -21z m1289 -50 c3 -3 9 -108 12 -232 3 -125
6 -219 7 -209 1 9 7 17 13 17 7 0 9 11 6 30 -4 18 -2 30 4 30 6 0 7 5 4 10 -4
6 4 19 17 29 19 16 24 17 31 5 4 -8 17 -14 28 -14 15 0 18 5 13 24 -5 23 -3
24 38 22 42 -1 43 0 42 31 -1 20 4 34 14 38 8 3 16 4 16 3 7 -12 36 -118 36
-131 0 -10 5 -17 11 -17 8 0 10 33 5 115 -5 110 -2 145 13 145 7 0 13 -60 15
-157 2 -40 12 -51 21 -21 4 13 13 27 19 31 8 6 8 10 -1 14 -20 7 -15 47 6 60
17 10 19 8 23 -20 3 -18 6 -57 7 -88 2 -51 0 -56 -24 -67 -34 -15 -35 -15 -36
6 -1 11 -4 8 -8 -8 -4 -15 -15 -26 -26 -27 -57 -6 -264 -71 -286 -89 -22 -19
-48 -17 -94 6 -22 11 -45 20 -51 20 -7 0 -15 8 -18 18 -8 25 -1 415 7 429 7
11 124 9 136 -3z m525 -15 c-3 -5 -10 -7 -15 -3 -5 3 -7 10 -3 15 3 5 10 7 15
3 5 -3 7 -10 3 -15z m-841 -42 c-3 -5 -9 -25 -13 -43 -9 -40 5 -47 14 -8 4 15
9 25 11 22 5 -5 -25 -108 -31 -108 -3 0 -2 10 2 23 6 21 6 21 -13 5 -11 -10
-27 -18 -36 -18 -9 0 -17 -7 -17 -15 0 -9 6 -12 15 -9 8 4 15 2 15 -4 0 -19
-43 -22 -56 -4 -16 20 -18 88 -4 97 6 3 10 14 10 24 0 27 35 54 63 49 20 -4
24 -1 20 16 -4 20 -4 20 11 2 8 -10 13 -23 9 -29z m1447 22 c-13 -8 -13 -10 0
-19 8 -5 21 -10 28 -10 6 0 12 -7 12 -15 0 -8 5 -15 11 -15 6 0 8 9 3 23 -7
22 -6 22 15 3 11 -11 21 -14 21 -8 0 7 9 12 20 12 11 0 20 4 20 9 0 4 -11 7
-25 6 -14 -2 -25 1 -25 6 0 5 -4 8 -9 7 -5 -2 -9 2 -9 7 -1 6 7 8 16 6 9 -2
69 -4 132 -5 102 -1 119 -4 145 -23 24 -17 28 -24 18 -34 -10 -10 -16 -9 -27
6 -8 11 -12 23 -9 28 8 13 -43 2 -102 -23 -19 -8 -19 -9 3 -9 13 -1 36 6 52
14 19 10 31 11 35 4 11 -17 -4 -41 -22 -37 -10 2 -27 -5 -38 -15 -11 -10 -21
-13 -23 -7 -5 15 -22 12 -22 -4 0 -9 -7 -13 -20 -11 -11 2 -19 -1 -17 -7 1 -6
-4 -13 -10 -15 -7 -3 -13 0 -13 6 0 6 -5 11 -11 11 -8 0 -7 -6 2 -16 11 -14
10 -19 -6 -33 -11 -9 -21 -21 -22 -26 -1 -6 -5 -18 -8 -27 -5 -13 -2 -18 9
-18 9 0 16 5 16 12 0 14 40 58 52 58 5 0 7 -4 3 -9 -10 -17 12 -21 25 -6 10
12 10 15 -1 15 -9 0 -10 3 -2 11 8 8 17 6 31 -9 11 -11 18 -23 15 -26 -4 -3 1
-6 9 -6 16 0 54 -48 44 -57 -9 -9 -55 32 -61 55 -5 19 -9 21 -26 12 -11 -6
-25 -23 -31 -36 -9 -19 -18 -24 -35 -21 -31 6 -29 -7 6 -51 29 -35 29 -39 19
-86 -6 -27 -19 -58 -29 -70 -11 -11 -19 -27 -19 -37 0 -9 -6 -22 -14 -28 -13
-11 -26 -50 -31 -86 -1 -5 -7 -23 -14 -40 -10 -23 -10 -34 -1 -49 7 -12 8 -16
1 -11 -7 3 -11 -2 -11 -15 0 -12 -4 -18 -10 -15 -5 3 -10 -1 -10 -9 0 -9 -11
-26 -25 -38 -13 -11 -32 -43 -41 -70 -47 -142 -6 93 48 277 11 39 27 88 35
110 8 21 16 51 19 65 2 14 10 52 17 85 l14 60 -39 3 c-33 3 -38 6 -33 23 7 22
-2 25 -24 6 -9 -7 -43 -22 -76 -32 -57 -17 -99 -31 -206 -69 -48 -17 -54 -26
-78 -106 -16 -57 -22 -116 -26 -290 -2 -91 -4 -168 -4 -172 -1 -4 -8 -5 -16
-2 -8 4 -15 1 -15 -5 0 -6 7 -11 15 -11 8 0 15 -6 16 -12 3 -39 1 -80 -5 -85
-3 -4 -6 2 -6 13 0 13 -11 24 -30 31 -34 13 -34 13 -19 -21 8 -18 9 -33 1 -55
-6 -17 -7 -31 -3 -31 4 0 0 -24 -10 -52 -12 -35 -14 -57 -8 -64 6 -8 6 -13 -1
-16 -9 -3 -25 -78 -16 -78 2 0 16 6 30 14 21 10 23 15 12 19 -25 10 -7 40 20
34 13 -2 24 0 24 4 0 5 -5 9 -11 9 -6 0 -9 6 -6 14 3 8 3 17 -1 20 -13 13 -10
35 4 29 9 -3 14 1 14 12 0 10 -5 15 -13 12 -8 -3 -13 3 -13 14 0 12 5 18 13
15 7 -3 13 -1 13 4 0 6 5 10 10 10 7 0 10 -64 10 -186 -1 -102 0 -188 2 -190
3 -2 20 1 39 6 18 6 41 10 50 10 19 0 31 -44 16 -59 -5 -5 -10 -31 -11 -58 -1
-26 -5 -55 -11 -63 -5 -8 -8 -25 -7 -37 2 -11 -2 -24 -7 -28 -15 -9 -14 -42 1
-47 9 -3 10 -14 3 -42 -11 -42 -31 -49 -28 -10 1 19 -2 24 -12 20 -11 -4 -15
2 -15 20 0 14 -4 22 -10 19 -5 -3 -10 1 -10 10 0 10 5 14 13 9 9 -5 9 -4 0 6
-17 19 -21 12 -24 -45 -1 -27 -8 -57 -14 -65 -13 -16 -13 -19 -19 -110 -7
-115 -8 -119 -15 -74 -4 23 -7 74 -7 113 1 81 -16 92 -25 15 -7 -60 -18 -94
-31 -94 -6 0 -8 -9 -5 -20 4 -16 2 -18 -13 -10 -13 7 -20 6 -23 -3 -2 -6 -2 9
0 35 4 35 2 46 -8 46 -55 -3 -83 18 -40 29 18 5 17 7 -10 34 -34 33 -33 30
-15 74 19 45 58 273 50 287 -9 15 15 28 54 28 19 0 35 6 38 15 3 8 14 17 25
20 10 4 19 13 19 21 0 8 5 14 11 14 8 0 8 4 2 13 -5 6 -9 29 -9 49 1 32 -2 38
-19 38 -17 0 -17 -2 -5 -10 8 -5 10 -10 4 -10 -23 0 -26 -34 -4 -52 17 -14 19
-21 10 -38 -14 -26 -24 -26 -17 0 3 11 1 20 -4 20 -5 0 -11 11 -15 25 -3 14
-10 25 -16 25 -5 0 -7 -9 -3 -19 7 -24 -27 -62 -45 -51 -9 6 -6 10 9 15 11 3
21 11 21 16 0 6 -7 6 -19 0 -18 -10 -19 -6 -20 72 -1 45 -2 93 -3 107 -1 24
35 189 103 480 37 154 97 348 129 412 32 62 71 94 130 107 28 6 59 11 70 11
25 0 34 16 14 24 -9 3 -41 6 -72 6 -35 0 -52 4 -44 9 8 4 12 12 10 17 -1 5 7
13 20 19 12 5 22 15 22 21 0 6 11 21 26 34 21 21 27 22 34 10 7 -11 10 -12 10
-2 0 8 9 12 23 10 12 -2 31 5 41 14 11 10 22 15 25 12 3 -3 -1 -9 -9 -15z m34
-7 c3 -5 -1 -9 -9 -9 -8 0 -12 4 -9 9 3 4 7 8 9 8 2 0 6 -4 9 -8z m-2901 -48
c-3 -8 -9 -14 -13 -14 -12 0 -23 38 -14 51 10 16 35 -18 27 -37z m1487 27 c0
-6 -4 -13 -10 -16 -5 -3 -10 1 -10 9 0 9 5 16 10 16 6 0 10 -4 10 -9z m-10
-81 c0 -45 -3 -52 -27 -63 -16 -6 -31 -16 -35 -22 -15 -21 -4 19 31 108 17 42
31 32 31 -23z m622 5 c-2 -19 -8 -35 -13 -35 -14 0 -11 58 4 63 6 3 12 6 12 6
1 1 -1 -15 -3 -34z m1318 10 c68 -24 115 -59 158 -117 22 -29 72 -88 112 -130
l72 -78 -94 0 c-62 0 -113 -6 -155 -19 -72 -22 -64 -26 -128 74 -76 118 -112
170 -129 184 -9 8 -30 31 -47 52 l-30 38 33 10 c43 14 151 6 208 -14z m-1863
-11 c-3 -3 -12 -4 -19 -1 -8 3 -5 6 6 6 11 1 17 -2 13 -5z m-363 -25 c-3 -5
-10 -7 -15 -3 -5 3 -7 10 -3 15 3 5 10 7 15 3 5 -3 7 -10 3 -15z m1991 1 c10
-11 16 -22 13 -25 -2 -3 -14 6 -26 20 -26 30 -13 34 13 5z m-9757 -189 c2
-183 -3 -229 -25 -207 -9 8 -21 359 -15 389 3 10 12 17 21 15 14 -3 16 -28 19
-197z m387 182 c3 -10 11 -301 16 -647 9 -561 8 -632 -5 -661 -9 -18 -16 -37
-16 -42 0 -6 -9 -18 -19 -27 -19 -17 -19 -16 -14 66 3 46 9 99 14 118 14 54
11 223 -5 261 -9 22 -16 105 -21 234 -10 239 -10 240 0 286 6 32 5 37 -15 42
-21 5 -22 9 -16 99 11 186 17 243 32 266 17 26 39 29 49 5z m129 -207 c14
-469 18 -1074 6 -1081 -6 -4 -13 -5 -14 -4 -6 7 -31 964 -31 1159 0 109 9 156
24 131 5 -8 12 -100 15 -205z m8640 131 c-67 -127 -142 -380 -225 -762 -22
-104 -43 -192 -45 -194 -2 -2 -25 2 -51 9 -26 6 -112 14 -190 17 -79 3 -143 9
-143 13 0 24 128 389 142 405 4 5 8 15 8 22 0 7 17 50 39 96 36 77 42 84 90
106 28 14 58 35 67 48 18 28 28 163 12 163 -6 0 -8 13 -4 33 4 22 3 27 -3 17
-15 -22 -21 -8 -12 26 11 41 37 39 33 -3 -3 -31 -3 -32 31 -28 19 3 47 9 62
15 14 6 31 8 36 4 5 -3 9 0 9 5 0 6 -4 11 -10 11 -5 0 -10 9 -10 20 0 23 21
26 50 8 17 -11 22 -9 35 10 13 17 26 22 61 22 33 0 43 3 38 13 -5 8 -4 9 4 2
9 -8 3 -29 -24 -78z m-9300 57 c9 -23 7 -97 -3 -113 -17 -26 -31 1 -31 58 0
32 3 61 7 64 11 11 20 8 27 -9z m-94 -38 c0 -25 -4 -48 -10 -51 -5 -3 -10 -23
-10 -44 0 -23 -8 -48 -19 -62 -17 -22 -21 -22 -45 -10 -17 10 -26 23 -27 40
l-1 26 -7 -25 c-6 -20 -10 -10 -16 42 -7 66 -2 108 12 94 4 -4 8 -23 10 -43 1
-19 4 -37 6 -39 2 -2 18 3 35 12 26 13 32 22 32 48 0 30 15 56 32 56 4 0 8
-20 8 -44z m491 34 c14 -8 19 -21 19 -50 l0 -40 -44 0 c-48 0 -56 9 -56 66 0
31 2 34 31 34 17 0 39 -5 50 -10z m9549 -20 c0 -5 -2 -10 -4 -10 -3 0 -8 5
-11 10 -3 6 -1 10 4 10 6 0 11 -4 11 -10z m-1770 -24 c0 -3 -4 -8 -10 -11 -5
-3 -10 -1 -10 4 0 6 5 11 10 11 6 0 10 -2 10 -4z m1630 -27 c0 -8 6 -7 17 2
14 12 15 12 10 -1 -4 -8 -10 -22 -13 -31 -7 -20 -54 -20 -54 -1 0 6 5 12 10
12 6 0 10 7 10 15 0 8 5 15 10 15 6 0 10 -5 10 -11z m35 -29 c3 -5 1 -10 -4
-10 -6 0 -11 5 -11 10 0 6 2 10 4 10 3 0 8 -4 11 -10z m-10220 -20 c3 -5 15
-10 26 -10 23 0 24 -9 5 -47 -8 -15 -20 -41 -27 -56 -19 -42 -53 -33 -57 15
-5 60 33 131 53 98z m8552 -16 c-3 -3 -12 -4 -19 -1 -8 3 -5 6 6 6 11 1 17 -2
13 -5z m1817 -40 c3 -8 -4 -18 -15 -25 -22 -12 -41 -3 -21 10 7 4 10 15 6 24
-5 13 -2 16 9 11 9 -3 18 -12 21 -20z m-1818 -28 c-1 -12 -4 -23 -7 -26 -3 -3
-11 -14 -17 -25 -6 -11 -12 -14 -12 -7 0 23 -25 12 -26 -13 -1 -15 3 -25 12
-25 8 0 14 5 14 11 0 5 5 7 11 3 8 -5 8 -9 -1 -14 -9 -5 -9 -9 -1 -14 6 -4 11
-12 11 -19 0 -8 -3 -8 -12 1 -19 19 -30 14 -23 -9 4 -13 0 -27 -11 -40 -16
-18 -16 -19 5 -19 18 0 20 -4 15 -26 -6 -24 -5 -26 16 -19 16 5 20 4 15 -5 -5
-9 -2 -10 14 -5 13 4 21 2 21 -5 0 -7 -15 -10 -42 -9 -29 3 -43 -1 -46 -10 -3
-9 0 -12 10 -9 8 4 21 2 29 -3 9 -6 -2 -9 -33 -9 -37 0 -48 4 -48 16 0 8 -4
13 -9 10 -5 -4 -17 -3 -26 0 -14 6 -16 15 -11 50 8 64 0 78 -31 51 -52 -46
-132 -180 -201 -338 -11 -25 -37 -72 -58 -105 -39 -60 -51 -85 -86 -186 -11
-32 -24 -58 -28 -58 -5 0 -13 19 -18 43 -8 35 -10 37 -11 13 -1 -16 4 -44 11
-61 8 -25 8 -42 -3 -79 -7 -25 -18 -45 -23 -43 -10 3 -30 57 -67 184 -14 47
-19 82 -14 100 17 65 17 120 1 136 -13 13 -15 28 -10 71 12 98 48 60 58 -59 7
-93 26 -199 36 -209 7 -7 10 -4 10 7 0 9 5 17 10 17 6 0 10 -7 10 -15 0 -36
20 -10 31 40 9 42 16 55 31 55 10 0 18 5 18 11 0 5 -4 8 -9 4 -5 -3 -17 5 -25
17 -11 16 -12 24 -4 29 7 4 4 11 -9 18 -26 13 -35 55 -16 74 20 20 -15 61 -73
83 -37 14 -43 19 -29 27 14 8 10 12 -25 28 -23 11 -48 19 -55 19 -7 0 -29 22
-49 49 -43 61 -72 80 -71 47 1 -12 5 -27 9 -34 4 -7 1 -21 -7 -33 -8 -11 -16
-16 -18 -10 -2 6 -24 13 -49 16 -24 3 -48 9 -52 13 -7 7 29 68 60 100 7 8 19
29 27 48 15 37 23 37 85 -1 102 -63 167 -86 242 -87 40 0 81 -4 91 -10 14 -7
19 -3 27 18 10 25 12 26 24 9 7 -10 17 -16 22 -13 15 9 54 -10 54 -27 0 -8 7
-15 16 -15 8 0 13 -4 9 -9 -3 -5 -1 -12 5 -16 5 -3 18 9 29 27 11 18 32 55 48
82 15 27 39 58 52 70 13 11 32 39 42 61 17 35 19 37 14 10 -3 -16 -8 -69 -12
-117 -6 -85 -5 -87 16 -81 15 4 21 1 21 -11 0 -9 4 -16 8 -16 5 0 3 29 -3 65
-7 36 -9 68 -4 70 4 3 11 26 15 51 4 28 14 50 25 57 11 7 19 23 19 38 0 14 3
28 6 32 10 10 30 -15 30 -37z m1848 30 c-3 -8 -1 -31 5 -52 7 -26 7 -34 0 -27
-15 15 -24 93 -11 93 6 0 9 -6 6 -14z m-9724 -86 c0 -63 -3 -82 -15 -87 -24
-9 -29 2 -33 72 -5 76 0 95 28 95 18 0 20 -6 20 -80z m9610 36 c0 -3 -4 -8
-10 -11 -5 -3 -10 -1 -10 4 0 6 5 11 10 11 6 0 10 -2 10 -4z m-9900 -61 c0
-43 -3 -55 -15 -55 -23 0 -28 23 -15 69 15 58 30 51 30 -14z m10030 5 c8 -5
12 -11 10 -14 -3 -2 -14 2 -24 10 -22 15 -10 19 14 4z m-170 -20 c0 -5 -2 -10
-4 -10 -3 0 -8 5 -11 10 -3 6 -1 10 4 10 6 0 11 -4 11 -10z m145 -18 c-6 -7
-34 11 -29 19 3 5 11 3 19 -4 7 -6 12 -13 10 -15z m-3845 10 c0 -5 -9 -17 -20
-27 -35 -32 -47 -69 -48 -153 l-2 -80 35 -22 c49 -30 83 -75 91 -118 4 -20 12
-44 19 -52 14 -17 40 -97 50 -153 5 -32 2 -42 -27 -77 -32 -38 -61 -53 -55
-28 1 7 -8 14 -19 16 -21 3 -22 8 -18 90 1 48 6 97 9 109 5 16 2 23 -13 27
-30 10 -72 -14 -78 -43 -3 -14 -10 -39 -15 -55 -13 -42 -11 -71 8 -111 9 -19
14 -38 10 -41 -12 -12 -65 52 -72 87 -3 19 -10 43 -15 54 -44 97 -60 168 -41
179 5 3 25 -1 44 -9 19 -8 37 -12 40 -9 9 10 -90 94 -110 94 -19 0 -20 -3 -11
-39 6 -25 7 -50 1 -68 -6 -16 -6 -47 -1 -77 11 -59 -1 -79 -29 -45 -60 75
-123 112 -208 123 -16 2 -45 9 -63 14 -30 10 -35 8 -54 -14 -26 -29 -47 -30
-78 -4 -27 24 -34 25 -27 6 4 -10 -8 -18 -39 -26 -25 -7 -64 -27 -87 -45 -64
-49 -177 -58 -177 -15 0 4 46 22 103 40 80 26 111 41 145 72 40 37 46 39 100
37 43 -2 67 3 97 19 22 12 50 22 62 22 13 0 27 9 34 23 27 52 77 71 110 41 16
-14 19 -14 38 5 12 12 29 21 39 21 9 0 30 14 45 30 31 33 44 36 82 18 35 -16
42 -3 21 33 l-18 31 31 28 c17 16 31 33 31 37 0 15 50 63 65 63 8 0 15 -4 15
-8z m3683 -28 c-3 -9 1 -14 12 -14 9 0 14 4 10 9 -3 5 0 13 6 17 9 5 10 -1 5
-20 -4 -15 -2 -26 4 -26 5 0 10 6 10 13 0 6 5 4 11 -6 12 -20 -10 -44 -73 -77
-30 -16 -36 -17 -32 -5 4 8 10 15 15 15 5 0 9 5 9 11 0 5 -6 7 -12 3 -10 -6
-10 -4 0 7 17 18 15 27 -9 34 -18 6 -19 9 -6 23 8 10 17 25 21 36 5 14 9 16
21 6 7 -6 11 -18 8 -26z m134 -7 c-6 -20 -26 -19 -24 1 1 12 6 18 14 15 8 -3
12 -10 10 -16z m-187 -57 c0 -5 -5 -10 -11 -10 -5 0 -7 5 -4 10 3 6 8 10 11
10 2 0 4 -4 4 -10z m-9388 -50 c-1 -14 -3 -46 -3 -72 0 -45 -16 -67 -40 -52
-5 3 -9 -2 -9 -11 0 -9 -4 -13 -10 -10 -5 3 -10 18 -10 33 0 19 3 23 9 14 12
-19 20 17 10 43 -8 20 -8 20 -9 0 -1 -18 -2 -17 -11 5 -15 37 -7 63 21 71 41
12 55 6 52 -21z m1502 -295 c3 -143 9 -317 12 -387 6 -115 5 -128 -10 -128 -9
0 -16 3 -17 8 -1 4 -3 126 -5 272 -2 146 -8 303 -12 350 -9 85 -7 172 5 200
13 33 21 -65 27 -315z m6300 266 c3 -5 -5 -11 -19 -13 -28 -6 -35 8 -7 15 9 3
18 5 19 6 1 0 4 -3 7 -8z m2635 -103 c9 -25 15 -28 53 -28 46 0 576 -43 743
-61 55 -5 154 -14 220 -20 66 -5 188 -16 270 -24 83 -8 184 -17 225 -20 127
-11 298 -35 327 -46 114 -43 186 -190 148 -300 -21 -59 -57 -103 -102 -124
-40 -20 -158 -46 -177 -40 -6 2 -128 11 -271 20 -143 8 -348 22 -455 30 -213
16 -588 43 -687 49 -70 4 -73 0 -50 -57 8 -18 22 -66 31 -107 10 -41 28 -111
41 -155 13 -44 26 -102 29 -130 5 -49 5 -49 -4 -10 -6 22 -21 78 -35 125 -13
47 -36 128 -51 180 -14 52 -55 156 -90 231 -35 75 -64 140 -64 145 0 4 -20 51
-45 105 -25 53 -50 124 -55 156 -6 33 -19 86 -30 118 -11 32 -20 61 -19 64 1
7 35 -64 48 -101z m-3763 36 c-6 -15 30 -47 72 -65 17 -8 32 -18 32 -22 0 -11
-87 -427 -101 -482 l-10 -40 -79 -2 c-43 -1 -102 -9 -131 -17 -71 -21 -71 -21
-63 22 32 187 98 447 141 560 16 43 17 43 62 42 74 -3 79 -2 61 13 -8 7 -16
21 -18 32 -2 18 0 17 17 -5 12 -14 19 -30 17 -36z m-101 26 c-3 -5 -10 -10
-16 -10 -5 0 -9 5 -9 10 0 6 7 10 16 10 8 0 12 -4 9 -10z m3349 -6 c3 -8 2
-12 -4 -9 -6 3 -10 10 -10 16 0 14 7 11 14 -7z m-2939 -14 c3 -5 1 -10 -5 -10
-6 0 -9 -4 -6 -8 9 -14 -8 -28 -63 -50 -64 -26 -67 -26 -75 -6 -4 11 -1 14 12
10 11 -4 36 9 67 34 54 42 61 45 70 30z m-201 -22 c-1 -10 5 -14 17 -11 15 4
18 1 13 -11 -13 -33 -76 -10 -67 24 6 24 39 23 37 -2z m3140 -3 c-7 -17 -20
-20 -28 -6 -7 10 3 21 20 21 8 0 11 -6 8 -15z m-2855 -62 c2 -2 1 -6 -2 -10
-8 -7 -77 28 -77 39 0 6 59 -16 79 -29z m-7119 -3 c0 -5 -7 -7 -15 -4 -8 4
-15 8 -15 10 0 2 7 4 15 4 8 0 15 -4 15 -10z m9993 -8 c-8 -5 -9 -13 -3 -22 6
-8 9 -26 9 -40 0 -18 -4 -12 -15 20 -7 25 -14 46 -14 48 0 1 8 2 18 2 11 0 13
-3 5 -8z m-9975 -16 c-7 -8 -15 -12 -17 -11 -5 6 10 25 20 25 5 0 4 -6 -3 -14z
m6349 -38 c-3 -8 -6 -5 -6 6 -1 11 2 17 5 13 3 -3 4 -12 1 -19z m3673 7 c-7
-9 -15 -13 -17 -11 -7 7 7 26 19 26 6 0 6 -6 -2 -15z m-3155 -131 c4 -94 3
-157 -6 -203 -23 -126 -35 -166 -50 -169 -19 -4 -20 9 -8 123 5 50 11 122 14
160 3 39 9 99 15 135 5 36 10 71 10 78 0 6 4 12 9 12 4 0 12 -61 16 -136z
m-515 72 c0 -14 -4 -28 -10 -31 -6 -4 -10 7 -10 24 0 17 5 31 10 31 6 0 10
-11 10 -24z m-890 -111 c30 -31 64 -58 75 -61 11 -3 29 -19 40 -35 11 -17 28
-35 38 -40 21 -12 67 -83 67 -104 0 -21 -30 -18 -60 5 -14 11 -29 20 -35 20
-23 1 -225 263 -225 292 0 14 41 -18 100 -77z m4554 52 c7 -6 6 -7 -4 -4 -8 2
-16 12 -17 23 -2 13 -1 15 4 4 3 -8 11 -19 17 -23z m31 15 c-3 -3 -11 0 -18 7
-9 10 -8 11 6 5 10 -3 15 -9 12 -12z m-2993 -4 c-7 -7 -12 -22 -12 -35 0 -13
-4 -23 -10 -23 -16 0 -12 32 7 52 9 10 19 18 22 18 3 0 0 -5 -7 -12z m-2336
-10 c9 -14 -31 -48 -57 -48 -26 0 -24 15 7 39 31 24 40 26 50 9z m1454 2 c0
-5 -4 -10 -10 -10 -5 0 -10 5 -10 10 0 6 5 10 10 10 6 0 10 -4 10 -10z m930
-27 c0 -31 -35 -73 -62 -73 -25 0 -23 13 5 25 12 6 26 24 32 43 11 39 25 42
25 5z m580 -46 c0 -34 -7 -139 -16 -234 -9 -94 -14 -178 -11 -186 4 -10 18
-12 54 -9 219 18 653 7 791 -19 61 -12 62 -13 62 -46 0 -18 -5 -33 -11 -33 -6
0 -9 -7 -5 -15 3 -9 0 -15 -8 -15 -23 0 -37 -26 -48 -94 -6 -36 -14 -66 -17
-66 -3 0 -15 -7 -25 -15 -16 -12 -17 -17 -6 -30 7 -8 17 -12 23 -8 5 3 7 1 4
-4 -5 -7 -46 -9 -114 -7 -168 7 -213 13 -213 30 0 27 -20 14 -21 -13 -1 -45
-7 -65 -21 -74 -11 -7 -10 -11 2 -19 13 -9 13 -11 0 -20 -9 -6 -10 -10 -3 -10
6 0 18 -2 25 -5 9 -4 19 5 27 21 6 15 14 24 18 21 3 -4 14 -2 25 4 11 6 27 7
36 3 9 -4 49 -8 87 -10 39 -1 73 -3 78 -3 4 -1 7 -8 7 -16 0 -19 14 -19 30 0
27 32 28 1 1 -43 -16 -26 -32 -60 -36 -77 -3 -16 -11 -33 -17 -36 -6 -4 -11
-20 -12 -35 -2 -39 -35 -71 -76 -72 -31 -1 -32 1 -26 30 3 18 13 39 20 47 35
39 98 181 81 181 -3 0 -13 -4 -23 -9 -9 -5 -24 -12 -33 -15 -28 -8 -69 -71
-83 -127 -8 -30 -12 -57 -9 -62 2 -4 -1 -14 -7 -22 -6 -8 -9 -18 -6 -24 3 -5
3 -16 0 -25 -5 -12 -10 -14 -19 -6 -12 10 -11 34 2 70 3 8 7 36 8 62 1 26 8
55 15 63 7 9 10 18 6 22 -3 3 -6 1 -6 -5 0 -7 -9 -12 -20 -12 -11 0 -20 5 -20
10 0 6 7 10 15 10 18 0 20 16 3 23 -10 4 -9 8 2 16 8 5 11 13 7 17 -16 17 -46
-29 -51 -80 -6 -54 -16 -182 -16 -203 0 -7 -6 -13 -14 -13 -8 0 -16 6 -19 13
-2 6 -8 8 -13 4 -5 -4 -2 -12 6 -18 13 -8 13 -10 0 -20 -11 -8 -7 -9 17 -4 25
5 31 3 29 -10 -3 -18 -5 -19 -29 -10 -9 4 -29 4 -45 0 -15 -4 -36 -9 -47 -11
-11 -1 -49 -8 -85 -14 -36 -6 -83 -13 -105 -15 -22 -2 -73 -6 -114 -9 -41 -4
-81 -12 -88 -18 -11 -9 -16 -9 -23 1 -5 10 -9 10 -15 1 -16 -26 -3 -26 245
-16 91 4 182 10 203 13 l38 5 -53 -98 c-29 -55 -62 -114 -75 -133 -13 -19 -23
-39 -23 -45 0 -17 -66 -50 -85 -42 -9 3 -13 2 -10 -4 3 -6 1 -10 -5 -10 -6 0
-8 -5 -5 -10 4 -6 -7 -13 -24 -16 -16 -4 -32 -12 -35 -20 -3 -7 -12 -11 -21
-8 -8 3 -15 2 -15 -4 0 -5 -23 -12 -50 -16 -28 -4 -56 -9 -64 -12 -39 -15 -9
89 35 120 12 8 19 19 15 24 -3 5 8 23 24 41 17 17 30 35 30 40 0 6 23 33 50
60 53 53 61 70 33 73 -10 0 -31 2 -48 4 -16 1 -52 -5 -78 -13 -26 -9 -50 -13
-54 -10 -6 7 -63 -53 -63 -66 0 -7 -46 -73 -60 -87 -3 -3 -18 -31 -34 -63 -16
-32 -31 -55 -34 -53 -8 8 -62 -23 -62 -36 0 -19 -32 -48 -52 -48 -26 0 -28 42
-2 70 9 11 11 28 7 54 -11 69 -72 63 -73 -8 0 -58 -21 -104 -49 -109 -36 -7
-45 5 -51 71 -4 51 -7 57 -28 58 -36 2 -49 20 -34 45 8 12 10 19 5 17 -52 -25
-63 -34 -63 -47 0 -19 -45 -42 -66 -34 -8 3 -14 -1 -14 -10 0 -8 -7 -17 -15
-21 -8 -3 -15 -12 -15 -20 0 -18 -20 -23 -103 -29 -37 -2 -62 -9 -70 -20 -12
-15 -75 -37 -108 -37 -28 0 -31 30 -7 79 12 25 25 48 28 51 22 16 35 67 40
155 l5 100 30 1 c17 0 36 -3 43 -9 8 -6 12 -6 12 2 0 6 18 11 44 11 26 0 48 6
56 15 11 13 6 15 -31 14 -34 0 -39 -2 -24 -9 16 -7 13 -9 -17 -9 -20 -1 -40 4
-43 9 -9 14 -55 12 -55 -2 0 -9 -3 -8 -10 2 -5 8 -5 19 -1 23 5 5 73 8 152 8
177 1 570 26 582 38 5 5 1 12 -11 15 -15 5 -23 24 -35 84 -9 42 -15 94 -13
114 2 24 -2 42 -10 49 -8 6 -14 32 -15 58 -1 25 -4 57 -8 71 -7 24 0 94 14
138 10 29 -8 29 -24 -1 -14 -26 -22 -97 -13 -112 7 -10 11 -39 15 -107 4 -52
-6 -63 -49 -52 l-24 6 25 30 c14 16 25 38 25 49 0 32 -26 85 -50 102 l-23 16
23 58 c13 32 31 72 40 88 9 17 23 55 30 85 8 30 20 62 27 71 7 9 10 19 6 23
-5 5 1 6 12 4 11 -2 19 -10 18 -16 -5 -23 18 -12 27 13 5 14 16 25 23 25 16 0
50 34 42 42 -3 3 1 34 10 69 9 35 18 73 20 84 3 11 8 33 11 49 4 16 24 46 45
67 22 22 36 45 33 52 -3 9 3 17 15 20 13 3 21 14 22 29 7 123 39 160 39 45z
m-5806 9 c42 -17 56 -55 19 -48 -21 4 -24 2 -19 -14 7 -24 -27 -49 -50 -36
-18 10 -74 3 -74 -9 0 -4 5 -11 10 -14 6 -3 10 -16 10 -27 0 -19 -1 -20 -17
-5 -33 29 -69 31 -109 7 -33 -21 -37 -21 -52 -7 -14 15 -14 18 4 38 10 12 52
39 92 61 40 22 72 45 71 52 -4 30 2 45 15 40 8 -3 17 0 21 6 5 8 13 5 26 -9
11 -12 35 -27 53 -35z m2666 25 c0 -10 -54 -31 -78 -31 -21 0 -6 13 31 27 40
15 47 15 47 4z m1596 -53 c-6 -24 -14 -47 -17 -53 -3 -5 -16 -51 -29 -101 -25
-99 -23 -129 10 -119 34 11 52 -8 56 -61 5 -71 26 -174 36 -174 4 0 8 -13 8
-29 0 -17 5 -33 10 -36 6 -4 10 -21 10 -38 0 -18 7 -72 17 -121 17 -83 20 -90
50 -105 49 -24 40 -30 -22 -16 -65 15 -62 15 -74 15 -9 0 -22 52 -38 154 -5
27 -15 52 -23 57 -8 4 -58 31 -110 60 -52 29 -103 52 -113 51 -13 -1 -16 4
-12 18 5 15 2 17 -14 13 -16 -4 -18 -9 -11 -23 5 -10 15 -20 22 -23 8 -2 9 -8
4 -13 -5 -5 -13 -1 -20 10 -6 11 -21 30 -33 42 -13 11 -23 26 -23 31 0 9 -17
24 -75 67 l-20 15 20 6 c11 4 41 16 67 26 26 11 58 17 70 14 26 -6 125 46 135
71 3 8 -4 34 -16 59 -12 25 -21 55 -21 67 1 21 2 22 14 5 13 -16 14 -16 20 5
3 13 6 40 6 60 0 20 3 43 6 52 9 23 41 20 49 -4 8 -25 24 -26 31 -2 27 77 49
93 30 20z m2712 25 c-4 -20 -39 -25 -45 -6 -4 10 11 18 40 22 5 0 7 -7 5 -16z
m-4428 -8 c0 -3 -5 -13 -11 -23 -9 -14 -5 -27 20 -67 40 -62 40 -81 1 -27 -34
47 -83 72 -144 72 -100 1 -75 37 29 43 39 1 78 4 88 5 9 1 17 0 17 -3z m-2287
-72 c-7 -2 -19 -2 -25 0 -7 3 -2 5 12 5 14 0 19 -2 13 -5z m2387 -45 c96 -130
160 -252 141 -271 -8 -8 -11 -6 -11 6 0 10 -7 20 -15 23 -8 4 -12 10 -9 15 3
5 1 9 -3 9 -9 0 -63 110 -63 128 0 6 -16 28 -36 49 -46 48 -60 73 -41 73 7 0
24 -15 37 -32z m5595 12 c3 -5 -1 -10 -9 -10 -9 0 -16 5 -16 10 0 6 4 10 9 10
6 0 13 -4 16 -10z m-20 -28 c-6 -7 -45 9 -45 18 0 4 11 3 24 -3 14 -7 23 -13
21 -15z m-1599 -8 c28 -4 60 -14 72 -23 21 -15 9 -16 -168 -13 -181 3 -190 2
-190 -16 0 -27 9 -32 36 -22 13 5 24 6 24 1 0 -5 17 -9 38 -8 79 1 282 -10
288 -16 3 -3 1 -18 -4 -34 -6 -16 -11 -21 -11 -11 -1 13 -8 16 -36 11 -21 -3
-41 -1 -50 7 -11 9 -21 9 -46 -4 -22 -11 -36 -13 -43 -6 -13 13 -136 13 -136
0 0 -23 -19 -8 -22 18 l-4 27 -13 -27 c-11 -22 -16 -24 -27 -14 -7 7 -11 22
-9 32 2 11 7 36 10 56 3 23 12 38 23 41 26 7 211 8 268 1z m669 -98 c3 -44 8
-83 11 -88 3 -4 7 -50 9 -103 2 -52 6 -99 9 -103 3 -5 7 -39 10 -78 6 -80 -8
-68 -19 16 -3 30 -11 72 -16 93 -6 21 -12 77 -14 125 -2 48 -7 123 -10 167 -4
52 -3 75 4 65 5 -8 12 -51 16 -94z m-5740 78 c12 -5 13 -9 5 -14 -10 -6 -9
-13 4 -31 20 -29 20 -39 1 -39 -8 0 -15 5 -15 10 0 6 -7 10 -16 10 -9 0 -22 7
-28 16 -9 12 -17 13 -38 5 -17 -6 -29 -6 -36 1 -5 5 -20 8 -33 6 -23 -4 -22
-5 14 -27 20 -13 37 -28 37 -33 0 -12 -49 -2 -68 15 -18 14 -56 20 -122 19
-54 -1 -55 -1 -25 13 35 16 214 52 267 54 20 0 44 -2 53 -5z m-914 -33 c48 -5
97 -15 110 -22 36 -19 6 -24 -56 -9 -29 7 -70 10 -91 8 -25 -3 -47 1 -62 10
-17 11 -42 13 -97 10 -69 -5 -94 2 -62 16 14 7 137 1 258 -13z m989 4 c17 -9
30 -20 30 -25 0 -7 -55 18 -79 37 -13 10 25 1 49 -12z m6594 -3 c2 -4 -4 -8
-14 -8 -10 0 -16 4 -14 8 3 4 9 8 14 8 5 0 11 -4 14 -8z m-47 -34 c-3 -7 -5
-2 -5 12 0 14 2 19 5 13 2 -7 2 -19 0 -25z m105 10 c-7 -7 -12 -8 -12 -2 0 14
12 26 19 19 2 -3 -1 -11 -7 -17z m-22 2 c0 -5 -4 -10 -10 -10 -5 0 -10 5 -10
10 0 6 5 10 10 10 6 0 10 -4 10 -10z m18 -42 c7 -7 11 -23 11 -37 -2 -24 -2
-24 -6 -3 -2 12 -9 22 -14 22 -6 0 -7 5 -4 10 3 6 1 10 -6 10 -8 0 -10 -12 -6
-37 3 -21 3 -32 0 -25 -9 22 -31 13 -36 -15 -7 -36 -4 -38 25 -19 16 10 28 12
38 6 12 -8 12 -10 1 -10 -7 0 -11 -6 -7 -15 3 -8 1 -15 -5 -15 -7 0 -8 -12 -4
-30 5 -23 3 -30 -9 -30 -9 0 -16 -7 -16 -15 0 -29 -17 -15 -28 24 -15 49 -15
52 3 45 8 -4 15 -2 15 4 0 5 -9 12 -20 15 -20 5 -28 27 -10 27 6 0 10 5 10 11
0 5 -3 8 -7 6 -5 -3 -9 6 -9 19 -1 13 2 24 8 24 5 0 6 -4 3 -10 -8 -12 5 -13
25 0 8 5 11 12 7 16 -7 7 10 34 22 34 4 0 12 -5 19 -12z m-1858 -78 c100 0
271 -20 235 -28 -10 -2 -92 -1 -182 3 l-163 7 1 32 c1 23 3 25 6 9 4 -22 9
-23 103 -23z m-1650 17 c0 -11 -53 -24 -215 -53 l-30 -6 25 21 c34 29 104 49
168 50 36 1 52 -3 52 -12z m115 -74 c-16 -81 -14 -86 30 -91 22 -2 46 -9 54
-15 9 -8 57 -12 125 -13 61 0 125 -4 143 -9 29 -7 33 -5 39 19 3 14 10 24 14
21 5 -3 5 -18 0 -33 -23 -68 -52 -277 -54 -387 l-2 -120 -28 -3 c-16 -2 -50 3
-75 12 -36 12 -61 13 -102 7 -60 -10 -65 -8 -74 32 -5 19 -3 27 6 27 10 0 9 4
-3 16 -20 20 -38 11 -38 -19 0 -37 -12 -67 -25 -67 -18 0 -23 29 -12 62 5 17
5 34 -2 46 -8 14 -8 51 -1 124 10 101 5 170 -19 278 -16 71 -14 130 5 130 8 0
12 5 9 10 -3 6 -1 10 6 10 8 0 9 -11 4 -37z m1825 27 c0 -5 -7 -10 -15 -10 -8
0 -15 5 -15 10 0 6 7 10 15 10 8 0 15 -4 15 -10z m-1962 -32 c-3 -30 -7 -34
-43 -39 -22 -4 -66 -14 -98 -23 -32 -9 -66 -16 -76 -16 -11 0 -21 -7 -25 -15
-3 -8 -13 -15 -22 -15 -15 0 -15 -13 -9 -130 4 -72 8 -138 9 -148 0 -9 -6 -17
-14 -17 -15 0 -21 26 -34 147 -3 21 -14 66 -26 100 -31 94 -40 124 -40 131 0
12 28 8 64 -10 32 -15 39 -15 78 -1 24 8 68 23 98 31 30 9 69 21 85 26 51 16
57 14 53 -21z m1797 6 c50 -4 103 -8 120 -10 16 -1 33 3 37 9 5 7 8 3 8 -10 0
-27 -9 -27 -247 -16 -144 6 -171 12 -158 32 4 8 30 10 78 7 40 -3 113 -9 162
-12z m298 9 c-7 -2 -19 -2 -25 0 -7 3 -2 5 12 5 14 0 19 -2 13 -5z m1823 -173
c12 -69 40 -188 63 -266 22 -77 41 -144 41 -147 0 -4 -15 -7 -32 -7 -18 0 -52
-6 -76 -13 -33 -10 -40 -15 -30 -25 9 -9 8 -12 -5 -12 -9 0 -17 7 -17 15 0 9
-6 12 -15 8 -14 -5 -14 -8 1 -25 10 -10 24 -16 31 -13 9 3 11 0 7 -7 -7 -11
10 -9 47 6 10 5 16 2 16 -8 0 -9 -9 -18 -19 -22 -20 -6 -25 -24 -7 -24 8 0 9
-4 0 -13 -15 -19 -2 -30 18 -15 9 7 13 8 9 4 -4 -5 -3 -15 3 -22 7 -9 7 -19
-1 -34 -6 -12 -9 -24 -6 -28 3 -3 6 0 6 6 0 7 10 12 21 12 16 0 19 -3 12 -12
-6 -7 -13 -25 -17 -40 -5 -21 -3 -26 8 -22 10 4 12 -1 9 -20 -3 -14 -9 -26
-14 -26 -5 0 -6 -7 -2 -16 4 -11 -1 -23 -13 -32 -16 -12 -16 -14 -1 -9 12 5
17 1 17 -13 0 -11 -6 -20 -14 -20 -8 0 -17 -8 -20 -17 -6 -15 -8 -15 -17 -3
-7 11 -8 7 -3 -12 4 -18 2 -28 -5 -28 -6 0 -11 -9 -11 -20 0 -15 -7 -20 -27
-21 -19 -1 -22 -3 -10 -6 11 -3 16 -10 13 -20 -3 -8 -6 -18 -6 -23 0 -4 -8 -6
-19 -3 -12 3 -20 -2 -24 -16 -3 -12 -1 -24 4 -27 5 -3 9 0 9 5 0 6 5 11 10 11
6 0 10 -7 10 -15 0 -19 -13 -19 -53 0 -29 14 -30 14 -13 1 11 -9 17 -19 13
-22 -4 -4 -13 -1 -22 6 -21 18 -19 7 5 -20 16 -18 20 -20 20 -7 0 18 26 22 48
8 10 -6 9 -10 -7 -14 -12 -3 -21 -11 -21 -19 0 -10 3 -9 10 2 7 10 10 11 10 2
0 -16 -30 -28 -39 -15 -4 7 -11 6 -19 -3 -11 -12 -9 -14 10 -15 13 -1 29 -1
35 0 7 1 10 -5 7 -12 -3 -9 -14 -13 -27 -10 -18 4 -19 3 -6 -6 19 -12 16 -70
-3 -83 -16 -9 -31 27 -25 65 2 15 0 27 -4 27 -15 0 -19 34 -4 42 8 5 15 14 15
21 0 7 -4 6 -10 -3 -16 -25 -30 7 -30 70 0 30 -7 76 -15 103 -8 26 -14 49 -15
52 0 3 -3 12 -7 21 -3 9 0 20 8 25 10 6 10 9 2 9 -7 0 -21 19 -31 43 -29 63
-30 71 -15 86 8 7 12 20 9 27 -3 8 3 20 14 26 11 7 20 20 20 28 1 13 2 13 13
-1 7 -9 18 -14 25 -12 6 3 12 0 12 -5 0 -5 -11 -13 -25 -16 -19 -5 -25 -13
-25 -33 0 -14 -8 -32 -17 -40 -10 -8 1 -5 24 7 l43 20 -10 -25 c-12 -31 4 -34
20 -4 15 27 -5 56 -27 38 -7 -7 -17 -9 -21 -5 -6 7 5 16 52 41 11 5 21 17 23
25 3 10 -1 8 -11 -4 -16 -19 -16 -19 -16 2 0 12 -4 22 -10 22 -5 0 -7 8 -4 18
5 14 4 14 -5 2 -15 -21 -27 -3 -13 20 8 14 8 21 1 26 -6 4 -15 0 -20 -7 -5 -8
-9 -9 -9 -4 0 6 5 17 10 25 9 13 12 13 23 -1 10 -14 14 -14 25 -2 7 7 17 11
22 8 4 -3 6 4 3 15 -6 22 -23 27 -23 7 0 -9 -11 -12 -35 -9 -19 2 -35 0 -35
-4 0 -5 -14 -10 -32 -11 -17 -1 -35 -8 -38 -14 -5 -8 -13 -8 -27 -1 -14 8 -23
8 -31 0 -9 -9 -12 -9 -12 0 0 7 5 12 11 12 20 0 -28 279 -58 336 -6 10 -14 42
-18 69 -10 80 -34 99 -48 40 -4 -18 -5 -17 -6 3 0 13 -5 21 -10 18 -5 -3 -12
6 -16 21 -4 19 -2 29 9 35 26 15 46 39 41 49 -4 5 11 8 32 8 21 -1 58 6 83 14
25 8 83 20 130 26 47 6 96 13 110 15 64 9 63 11 86 -124z m-10451 61 c3 -8 1
-19 -4 -24 -12 -12 -44 -1 -36 13 3 5 1 10 -4 10 -6 0 -11 4 -11 10 0 15 49 7
55 -9z m6555 0 c0 -12 -16 -17 -100 -31 -36 -6 -76 -14 -90 -16 -43 -9 -1 14
55 30 86 25 135 31 135 17z m-5039 -54 c-5 -5 -17 -7 -26 -3 -13 5 -14 10 -4
28 11 21 12 21 25 3 9 -12 11 -22 5 -28z m5038 -50 c1 -56 -2 -66 -24 -87 -21
-20 -25 -32 -25 -86 0 -70 6 -94 25 -94 16 0 39 -27 28 -33 -4 -3 -33 -8 -64
-12 l-56 -7 -22 64 c-12 34 -28 77 -36 95 -8 18 -17 54 -21 81 -6 48 -5 49 26
62 23 9 28 15 18 21 -7 5 -22 6 -33 3 -16 -5 -18 -4 -8 7 12 12 172 58 184 53
4 -2 7 -32 8 -67z m-6789 -4 c0 -30 6 -53 17 -65 16 -18 16 -21 1 -46 -39 -64
-78 -53 -54 14 9 27 11 46 5 57 -12 20 -8 69 6 79 20 15 25 7 25 -39z m10170
32 c-7 -9 -10 -18 -6 -22 3 -3 6 -1 6 5 0 7 5 12 10 12 6 0 10 -18 10 -39 0
-22 -4 -43 -10 -46 -16 -10 -12 -35 6 -35 8 0 13 -3 10 -8 -2 -4 2 -18 10 -32
10 -19 13 -21 14 -7 0 9 4 17 10 17 11 0 -4 -46 -22 -67 -6 -7 -7 -13 -2 -13
5 0 9 -19 9 -43 0 -23 5 -45 10 -49 6 -5 3 -8 -6 -8 -17 0 -34 -44 -24 -60 4
-6 1 -10 -4 -10 -6 0 -11 -13 -11 -29 0 -16 -6 -31 -15 -35 -8 -3 -15 -16 -15
-30 0 -14 -4 -28 -10 -31 -5 -3 -10 -14 -10 -24 0 -19 -24 -49 -52 -66 -8 -5
-31 -22 -50 -37 -19 -15 -45 -29 -59 -30 -21 -3 -24 1 -24 31 0 19 -5 36 -12
38 -14 5 -6 32 16 53 18 17 26 60 11 60 -6 0 -11 -10 -11 -22 l-2 -23 -4 23
c-2 12 -9 22 -15 22 -6 0 -8 -9 -5 -20 3 -11 1 -20 -4 -20 -5 0 -9 6 -10 13 0
9 -2 9 -6 -1 -2 -6 -8 -10 -13 -7 -4 3 -13 -2 -20 -10 -9 -10 -9 -15 -1 -15 6
0 11 -4 11 -10 0 -5 -7 -7 -15 -4 -9 4 -15 0 -15 -10 0 -27 49 -15 51 13 1 9
5 3 8 -14 4 -17 3 -36 -3 -44 -9 -12 -8 -13 5 -9 12 5 15 0 14 -23 -2 -38 -24
-60 -93 -95 -31 -15 -58 -32 -60 -36 -8 -18 -22 -6 -22 18 0 22 3 24 14 15 9
-8 16 -8 20 -2 4 6 13 8 21 4 8 -3 15 0 15 6 0 6 -7 11 -15 11 -18 0 -19 12
-3 28 9 9 8 12 -5 12 -9 0 -17 -7 -17 -15 0 -12 -9 -15 -35 -13 -19 1 -34 7
-32 13 2 5 11 9 21 7 11 -2 16 4 16 19 0 15 4 19 16 15 20 -8 54 11 54 30 0
11 -4 12 -19 4 -11 -5 -30 -10 -43 -9 -13 0 -18 3 -12 5 6 2 8 18 6 35 -4 24
0 31 17 36 24 6 29 23 6 23 -12 0 -13 5 -4 24 16 35 50 41 71 13 10 -12 18
-18 18 -13 0 5 -8 18 -17 28 -15 17 -15 19 3 33 10 8 25 12 32 10 6 -2 12 0
12 5 0 6 -4 10 -10 10 -5 0 -10 5 -10 11 0 6 7 9 15 5 9 -3 15 0 15 8 0 8 7
17 16 20 9 4 14 13 10 21 -3 8 -1 15 4 15 6 0 10 -9 10 -19 0 -11 4 -22 9 -25
5 -3 8 2 7 12 -1 11 5 16 19 15 11 -1 14 0 8 3 -7 3 -13 15 -13 25 0 13 4 18
12 13 8 -5 9 -2 5 10 -5 13 0 18 23 23 25 5 30 10 31 37 1 18 3 23 6 13 4 -14
8 -15 18 -7 8 6 11 18 8 25 -3 9 4 16 20 20 28 7 61 68 52 96 -7 20 -25 26
-25 9 0 -5 -4 -10 -10 -10 -5 0 -19 -9 -30 -20 -11 -11 -26 -20 -34 -20 -7 0
-16 -9 -19 -21 -3 -11 -14 -23 -25 -26 -11 -3 -23 -14 -25 -25 -3 -11 -10 -17
-16 -14 -12 8 -81 -56 -81 -76 -1 -9 -5 -7 -14 5 -13 17 -32 24 -22 8 3 -5 -1
-12 -10 -15 -10 -4 -13 -2 -8 6 4 7 3 8 -5 4 -6 -4 -9 -16 -6 -26 3 -10 1 -21
-4 -25 -7 -3 -8 0 -5 9 4 11 0 16 -11 16 -11 0 -15 -5 -12 -14 3 -8 -11 -31
-34 -54 -21 -22 -39 -45 -39 -51 0 -6 -9 -15 -21 -22 -14 -7 -19 -17 -16 -30
3 -10 1 -19 -4 -19 -21 0 -24 -2 -35 -21 -8 -16 -10 -8 -11 42 -1 44 -6 66
-16 74 -17 12 -41 91 -32 105 3 6 2 10 -4 10 -5 0 -12 -5 -14 -10 -3 -6 -4 -5
-3 2 2 7 9 13 17 13 9 0 15 -14 17 -39 3 -30 6 -36 14 -25 7 11 9 9 5 -9 -4
-15 0 -25 9 -29 8 -3 20 -19 27 -35 11 -27 12 -24 11 36 0 37 -3 69 -7 72 -3
3 -14 1 -25 -5 -18 -10 -21 -7 -27 31 -7 38 -5 44 21 65 16 13 43 30 61 38 18
9 35 20 38 25 3 6 21 10 38 9 32 0 32 0 7 -11 -21 -9 -22 -12 -7 -15 14 -4 16
-11 11 -41 -4 -20 -11 -38 -15 -40 -24 -9 -5 -22 27 -19 30 3 39 10 50 36 9
23 19 31 31 29 10 -2 26 5 35 15 10 11 22 16 30 11 7 -4 10 -4 6 0 -10 12 30
46 45 40 10 -4 19 9 28 40 9 32 16 42 24 36 15 -13 25 -2 18 18 -4 10 -2 13 5
8 7 -4 12 -3 12 3 0 5 -5 13 -11 17 -7 4 -2 11 13 19 13 6 27 8 33 3 16 -14
27 -9 21 10 -6 19 21 40 53 41 11 1 11 -2 1 -14z m-1444 -36 c-7 -44 -51 -135
-59 -122 -2 4 -3 19 -2 33 2 14 4 38 4 53 1 25 39 77 57 77 4 0 4 -18 0 -41z
m-2638 13 c6 -18 -15 -14 -22 4 -4 10 -1 14 6 12 6 -2 14 -10 16 -16z m1296
-64 c-4 -29 -8 -64 -10 -76 -3 -32 -13 -40 -13 -11 1 65 12 139 21 139 6 0 7
-19 2 -52z m-2315 2 c33 -63 61 -130 61 -144 0 -12 -7 -12 -47 0 -26 8 -53 12
-60 10 -7 -3 -29 11 -49 30 l-36 36 -14 -27 c-18 -35 -18 -35 5 -35 19 0 186
-61 197 -72 19 -20 -141 -53 -181 -38 -17 7 -25 5 -29 -6 -8 -20 -23 -17 -29
6 -6 24 -42 27 -55 4 -5 -9 -18 -14 -28 -12 -17 3 -19 14 -22 87 -2 69 -7 89
-27 119 l-25 36 47 14 c62 18 156 30 221 28 50 -1 54 -3 71 -36z m-1129 -140
l-8 -45 -1 56 -1 56 -36 -3 c-27 -2 -34 1 -30 12 3 8 0 14 -6 14 -24 0 3 13
39 19 37 6 38 6 44 -29 4 -19 3 -55 -1 -80z m-133 97 c18 1 21 -2 13 -16 -5
-10 -5 -23 0 -31 5 -8 6 -18 3 -23 -10 -16 28 -77 52 -83 14 -3 25 -11 25 -16
0 -6 -6 -8 -13 -5 -7 3 -22 -8 -33 -25 -17 -26 -23 -29 -54 -24 -19 3 -48 6
-64 6 -23 0 -26 3 -17 13 6 8 9 16 7 18 -3 2 -7 49 -10 103 l-6 98 37 -8 c21
-4 48 -7 60 -7z m2984 -102 l-20 -50 -1 60 c0 42 5 68 18 85 l17 25 3 -35 c1
-19 -6 -57 -17 -85z m-7401 50 c0 -25 -4 -45 -10 -45 -5 0 -10 20 -10 45 0 25
5 45 10 45 6 0 10 -20 10 -45z m4294 -16 c14 -142 5 -162 -78 -157 l-51 3 -5
80 c-3 44 -9 85 -13 92 -9 15 3 22 55 32 86 17 84 18 92 -50z m6173 47 c0 -8
-5 -13 -11 -12 -6 2 -8 1 -5 -1 10 -6 -1 -43 -12 -43 -5 0 -9 5 -9 11 0 5 -4
7 -10 4 -5 -3 -10 -2 -10 4 0 5 6 12 13 15 6 3 -1 4 -18 1 -27 -4 -27 -3 10
15 48 23 52 24 52 6z m413 -15 c0 -6 -4 -12 -8 -15 -5 -3 -9 1 -9 9 0 8 4 15
9 15 4 0 8 -4 8 -9z m-8906 -27 c10 -26 -3 -54 -25 -54 -21 0 -25 21 -9 51 13
23 26 24 34 3z m8516 -14 c0 -22 -4 -28 -15 -24 -11 5 -12 10 -5 18 6 9 6 16
-2 24 -9 9 -8 12 5 12 12 0 17 -8 17 -30z m-8170 -15 c0 -34 -12 -46 -25 -24
-9 14 3 59 15 59 6 0 10 -16 10 -35z m7316 -180 c1 -108 6 -209 9 -226 4 -17
2 -29 -3 -29 -14 0 -46 453 -33 466 17 17 24 -40 27 -211z m779 185 c3 -5 1
-10 -4 -10 -6 0 -11 5 -11 10 0 6 2 10 4 10 3 0 8 -4 11 -10z m-9920 -15 c65
-8 93 -16 98 -29 3 -8 43 -17 114 -26 63 -8 123 -21 143 -32 19 -10 52 -23 73
-29 20 -5 37 -15 37 -22 0 -32 -138 -127 -185 -127 -10 0 -37 -7 -60 -15 -22
-8 -94 -22 -160 -30 -66 -8 -183 -23 -260 -34 -225 -30 -309 -35 -344 -20 -22
10 -29 19 -25 29 4 8 12 47 17 85 9 66 12 72 51 102 22 17 52 33 66 35 15 2
30 14 38 31 7 15 20 27 29 27 8 0 27 6 41 14 96 51 167 60 327 41z m9908 -35
c-10 -9 -19 -13 -21 -9 -5 12 21 38 31 32 5 -3 0 -13 -10 -23z m-2450 -7 c7
-12 -51 -55 -58 -44 -3 5 5 19 17 30 23 22 34 26 41 14z m1325 -78 c-4 -22 -7
-62 -8 -89 0 -63 -11 -53 -16 15 -2 29 -8 55 -14 59 -10 6 -8 59 4 78 5 8 12
6 24 -6 14 -13 16 -25 10 -57z m-7300 38 c5 -17 -26 -29 -40 -15 -6 6 -7 15
-3 22 9 14 37 9 43 -7z m6024 -55 c-8 -8 -9 -4 -5 13 4 13 8 18 11 10 2 -7 -1
-18 -6 -23z m2128 -28 c19 -47 58 -107 76 -114 9 -4 15 -20 15 -43 0 -66 4
-103 10 -103 4 0 9 -9 12 -20 6 -22 -4 -19 -37 9 -40 34 -105 218 -106 296 0
34 11 25 30 -25z m-7300 5 c0 -8 -7 -15 -15 -15 -9 0 -12 6 -9 15 4 8 10 15
15 15 5 0 9 -7 9 -15z m4574 -157 c5 -105 4 -154 -3 -156 -16 -5 -13 -22 4
-22 13 0 14 -14 9 -92 -4 -51 -15 -120 -25 -153 -10 -33 -19 -70 -19 -81 0
-12 -7 -27 -15 -34 -8 -7 -15 -18 -15 -25 0 -7 -10 -25 -22 -40 -16 -21 -22
-40 -21 -79 1 -52 -34 -176 -49 -176 -5 0 -7 4 -4 8 3 5 -10 23 -29 39 -37 33
-32 32 -470 63 -183 12 -231 27 -290 91 -111 119 -80 283 69 369 79 45 126 50
340 39 103 -6 190 -8 193 -5 3 2 -2 28 -10 58 -26 95 -50 209 -44 214 5 5 40
-105 52 -166 4 -19 24 -89 45 -155 53 -166 110 -390 110 -428 l0 -32 15 28
c11 21 12 34 4 48 -5 11 -7 35 -3 53 3 20 0 50 -7 71 -12 34 -12 38 6 51 10 8
14 14 8 14 -7 0 -15 9 -18 20 -4 11 -11 18 -16 15 -20 -13 -7 21 16 44 19 18
28 21 39 12 10 -9 16 -8 26 4 7 8 21 15 31 15 11 0 19 6 19 14 0 7 7 19 15 26
9 7 14 19 11 26 -3 7 -1 16 4 19 17 10 11 22 -12 30 -17 5 -19 8 -8 12 34 13
41 25 25 43 -15 16 -15 19 0 33 14 15 12 18 -25 36 -22 10 -40 15 -40 10 0 -5
-7 -9 -15 -9 -9 0 -15 -9 -15 -21 0 -18 -3 -19 -14 -10 -11 9 -25 10 -50 3
-38 -11 -46 -8 -46 19 0 12 10 21 25 25 30 8 40 24 49 84 4 24 12 48 19 52 6
4 8 10 5 14 -11 10 -55 -22 -63 -45 -5 -18 -33 -36 -42 -28 -2 3 1 24 6 48 11
50 8 58 -20 41 -16 -10 -20 -10 -25 3 -9 21 5 54 15 37 6 -10 14 -7 36 10 17
13 51 25 87 30 32 4 71 14 86 23 58 31 58 29 66 -137z m-3164 126 c0 -2 -13
-4 -30 -4 -16 0 -30 4 -30 8 0 5 14 7 30 4 17 -2 30 -6 30 -8z m5230 12 c0
-11 -19 -15 -25 -6 -3 5 1 10 9 10 9 0 16 -2 16 -4z m-5300 -10 c0 -3 -4 -8
-10 -11 -5 -3 -10 -1 -10 4 0 6 5 11 10 11 6 0 10 -2 10 -4z m5400 -10 c0 -3
-4 -8 -10 -11 -5 -3 -10 -1 -10 4 0 6 5 11 10 11 6 0 10 -2 10 -4z m-6372 -18
c17 1 32 -3 32 -8 0 -12 -75 -13 -146 -3 -42 6 -45 8 -24 14 14 4 43 5 65 1
22 -3 55 -5 73 -4z m-850 -36 c2 -7 -5 -12 -17 -12 -14 0 -19 5 -14 15 6 17
25 15 31 -3z m402 -2 l25 -8 -25 -1 c-14 0 -32 4 -40 9 -13 9 -13 10 0 9 8 -1
26 -5 40 -9z m1360 -5 c-7 -9 -15 -13 -19 -10 -3 3 1 10 9 15 21 14 24 12 10
-5z m5345 5 c-3 -5 -12 -10 -18 -10 -7 0 -6 4 3 10 19 12 23 12 15 0z m35 0
c0 -5 -5 -10 -11 -10 -5 0 -7 5 -4 10 3 6 8 10 11 10 2 0 4 -4 4 -10z m-6677
-17 c-7 -2 -19 -2 -25 0 -7 3 -2 5 12 5 14 0 19 -2 13 -5z m117 -16 c30 -7 75
-28 99 -45 24 -18 56 -32 71 -32 15 0 35 -9 46 -21 20 -22 29 -22 129 1 70 16
438 17 568 2 115 -13 151 -29 211 -88 68 -68 88 -191 46 -275 -42 -84 -92
-121 -182 -134 -39 -6 -190 3 -628 35 -144 11 -540 35 -757 46 -131 7 -133 7
-133 -15 0 -11 -4 -21 -9 -21 -10 0 -18 68 -27 242 -6 107 -5 116 12 122 22 7
49 61 63 124 5 24 11 45 13 46 1 2 122 -5 268 -14 146 -9 267 -15 269 -14 5 4
-57 30 -99 42 -52 15 -23 14 40 -1z m6627 -9 c-3 -8 -6 -5 -6 6 -1 11 2 17 5
13 3 -3 4 -12 1 -19z m1483 7 c-10 -12 -9 -15 6 -15 13 0 15 -3 7 -11 -8 -8
-17 -7 -34 1 l-22 13 24 13 c31 17 34 17 19 -1z m-1540 -25 c0 -5 -5 -10 -11
-10 -5 0 -7 5 -4 10 3 6 8 10 11 10 2 0 4 -4 4 -10z m765 -50 c3 -32 -9 -41
-19 -14 -7 18 2 59 11 50 3 -3 7 -19 8 -36z m768 13 c14 -50 18 -77 10 -70
-12 13 -32 87 -23 87 5 0 11 -8 13 -17z m45 0 c-6 -7 -14 -10 -19 -7 -15 9
-10 20 10 20 15 0 17 -3 9 -13z m-6792 -11 c-7 -12 -166 -12 -166 -1 0 5 39 9
86 9 47 0 83 -4 80 -8z m-3541 -23 c67 -11 142 -44 155 -69 4 -8 8 -26 9 -40
1 -52 19 -206 26 -227 6 -19 2 -24 -20 -33 -14 -5 -48 -10 -74 -10 -26 0 -52
-5 -58 -11 -6 -6 -64 -14 -129 -19 -166 -12 -432 -48 -515 -69 -49 -12 -72
-14 -78 -7 -5 6 -11 105 -12 219 -3 174 -1 210 11 217 16 10 83 32 135 45 94
24 422 26 550 4z m-881 -13 c-5 -13 -62 -46 -79 -46 -9 0 67 58 77 59 4 1 5
-5 2 -13z m9546 4 c0 -5 -2 -10 -4 -10 -3 0 -8 5 -11 10 -3 6 -1 10 4 10 6 0
11 -4 11 -10z m-395 -10 c3 -5 -1 -10 -10 -10 -9 0 -13 5 -10 10 3 6 8 10 10
10 2 0 7 -4 10 -10z m573 -1 c-2 -6 -8 -10 -13 -10 -5 0 -11 4 -13 10 -2 6 4
11 13 11 9 0 15 -5 13 -11z m-501 -5 c-3 -3 -12 -4 -19 -1 -8 3 -5 6 6 6 11 1
17 -2 13 -5z m227 -10 c24 -9 19 -21 -9 -28 -23 -6 -55 11 -55 28 0 8 44 8 64
0z m-7314 -13 c0 -5 -7 -12 -16 -15 -14 -5 -15 -4 -4 9 14 17 20 19 20 6z
m6956 -50 c-3 -5 4 -21 15 -36 20 -25 21 -34 15 -143 -9 -166 -16 -219 -32
-239 -12 -16 -13 -7 -14 65 0 71 2 82 18 83 14 0 14 2 2 7 -12 5 -16 29 -18
102 -2 52 -7 98 -11 103 -10 10 -43 -137 -43 -197 -1 -55 -9 -63 -33 -36 -15
16 -17 30 -11 90 4 38 13 98 20 132 13 62 14 63 45 62 17 -1 31 2 31 7 0 5 5
9 11 9 5 0 8 -4 5 -9z m34 -1 c0 -5 -4 -10 -10 -10 -5 0 -10 5 -10 10 0 6 5
10 10 10 6 0 10 -4 10 -10z m40 6 c0 -3 -4 -8 -10 -11 -5 -3 -10 -1 -10 4 0 6
5 11 10 11 6 0 10 -2 10 -4z m-1737 -47 c7 0 -1 -5 -17 -10 -33 -9 -42 -6 -31
11 4 6 14 9 22 6 8 -3 20 -6 26 -7z m2977 2 c0 -4 14 -25 30 -46 17 -21 33
-55 36 -76 4 -24 11 -36 19 -33 12 5 29 -27 41 -81 4 -16 25 -53 46 -82 41
-56 45 -68 26 -79 -8 -5 -9 -2 -4 11 4 12 0 22 -14 32 -11 8 -18 18 -15 23 3
5 -5 16 -19 25 -14 9 -28 31 -32 48 -3 18 -15 40 -25 50 -11 10 -19 24 -19 31
0 8 -7 19 -15 26 -9 7 -14 19 -11 27 3 7 -1 13 -8 13 -8 0 -23 26 -34 60 -12
33 -16 60 -11 60 5 0 9 -4 9 -9z m-3050 -21 c-1 -9 -51 -42 -56 -37 -11 11 17
46 36 44 11 -1 20 -4 20 -7z m2465 -304 c3 -16 2 -27 -1 -23 -11 10 -33 185
-33 247 1 36 6 12 15 -70 7 -69 16 -138 19 -154z m-2390 254 c-11 -5 -27 -9
-35 -9 -9 0 -8 4 5 9 11 5 27 9 35 9 9 0 8 -4 -5 -9z m-4895 -277 c0 -22 -2
-25 -10 -13 -13 20 -13 40 0 40 6 0 10 -12 10 -27z m9604 -18 c135 -9 178 -32
231 -125 15 -27 20 -53 20 -111 0 -68 -4 -81 -35 -132 -19 -31 -38 -57 -42
-57 -13 0 -9 -46 6 -87 25 -67 26 -113 4 -217 -11 -56 -22 -117 -24 -137 -1
-20 -9 -53 -18 -72 -8 -20 -18 -62 -21 -94 -4 -32 -11 -62 -15 -68 -4 -5 -10
-23 -13 -40 -12 -65 -27 -131 -34 -145 -3 -8 -8 -24 -10 -35 -29 -155 -41
-249 -48 -355 -13 -224 -48 -580 -57 -580 -5 0 -20 -11 -34 -25 -31 -31 -106
-53 -161 -47 -35 3 -45 9 -58 34 -8 17 -12 34 -9 39 3 5 1 9 -3 9 -22 0 -43
173 -23 185 6 3 10 39 10 79 0 40 9 115 20 167 11 52 23 137 26 189 3 52 10
110 16 127 5 18 6 38 2 44 -10 17 -13 69 -4 69 5 0 11 -6 14 -12 4 -7 4 -3 2
10 -3 16 8 40 35 75 53 71 104 176 130 272 18 66 21 96 16 185 -9 172 -36 390
-58 463 -20 68 -48 280 -49 365 l0 43 43 -5 c23 -3 87 -8 141 -11z m-10030
-67 c12 -17 18 -19 30 -9 8 7 17 8 19 4 9 -14 11 -372 3 -381 -4 -4 -13 -7
-19 -7 -21 0 -20 -56 0 -75 20 -18 31 -104 16 -113 -12 -7 -202 -39 -253 -42
-25 -2 -64 -6 -87 -10 l-43 -8 -1 144 c0 79 -3 198 -5 264 -3 66 -2 139 1 163
6 37 9 43 28 40 30 -4 57 -66 70 -158 5 -41 12 -77 14 -80 14 -16 23 41 23
148 0 110 2 123 17 120 14 -3 17 -19 18 -120 2 -105 5 -119 26 -150 l24 -33
11 110 c12 117 25 162 48 171 9 3 18 14 21 25 8 25 20 24 39 -3z m6801 1 c-88
-4 -172 -10 -187 -13 -16 -3 -28 -1 -28 4 0 10 87 16 260 17 105 0 101 -1 -45
-8z m5942 -10 c54 -22 78 -34 91 -46 7 -7 20 -13 27 -13 36 0 76 -94 57 -134
-5 -11 -15 -41 -22 -65 -16 -59 -61 -99 -119 -106 -25 -3 -70 -9 -100 -15 -68
-12 -83 -4 -117 65 -23 49 -26 64 -22 125 11 145 103 230 205 189z m-6208 -3
c-10 -9 -179 -14 -179 -6 0 6 40 10 92 10 50 0 89 -2 87 -4z m-829 -16 c0 -5
-6 -10 -12 -11 -30 -2 -100 3 -145 11 -41 6 -33 8 55 9 62 1 102 -3 102 -9z
m220 0 c0 -13 -11 -13 -30 0 -12 8 -11 10 8 10 12 0 22 -4 22 -10z m314 -1
c-3 -6 -15 -8 -26 -6 -12 3 -23 -2 -31 -14 -14 -23 -27 -25 -27 -5 0 20 -18
30 -33 18 -17 -14 -154 -9 -169 6 -9 9 21 12 141 12 107 0 150 -3 145 -11z
m74 4 c-10 -2 -26 -2 -35 0 -10 3 -2 5 17 5 19 0 27 -2 18 -5z m-898 -11 c0
-4 -9 -8 -20 -9 -11 -1 -20 2 -20 8 0 5 9 9 20 9 11 0 20 -4 20 -8z m1552
-179 c-3 -176 -19 -347 -32 -351 -6 -2 -10 -8 -10 -14 0 -16 -84 -118 -97
-118 -6 0 -15 -9 -18 -20 -8 -26 -18 -28 -240 -35 -104 -3 -203 -8 -220 -11
-16 -3 -137 -6 -267 -8 -131 -1 -241 -6 -245 -9 -3 -4 46 -7 110 -7 117 0 151
-5 141 -21 -3 -5 0 -9 6 -9 6 0 2 -17 -10 -40 -24 -47 -24 -47 -5 -47 8 0 15
4 15 9 0 4 8 8 18 8 14 0 15 -2 2 -10 -13 -9 -13 -10 0 -10 23 0 35 13 37 40
6 73 3 70 59 70 38 0 53 -4 58 -16 3 -8 11 -12 17 -8 8 4 9 -1 4 -16 -6 -18
-4 -21 12 -18 12 3 17 11 16 26 -2 16 3 22 16 22 14 0 21 -10 25 -35 4 -22 13
-35 22 -35 8 0 14 7 12 17 -2 10 7 19 25 24 18 5 27 3 27 -4 0 -7 11 0 24 14
18 20 34 26 67 27 32 0 39 -2 24 -8 -18 -7 -19 -8 -2 -15 35 -15 9 -71 -75
-157 -49 -51 -54 -61 -56 -105 -4 -76 -22 -164 -43 -205 -10 -20 -19 -53 -19
-73 0 -22 -5 -35 -13 -35 -7 0 -18 -5 -25 -12 -14 -14 2 -48 23 -48 12 0 15
-16 15 -80 0 -57 4 -80 13 -80 8 0 7 -4 -3 -10 -12 -8 -13 -13 -2 -30 10 -17
9 -22 -8 -32 -25 -16 -29 -88 -5 -88 11 0 41 -70 32 -75 -26 -16 -48 -36 -34
-32 17 6 24 -7 9 -17 -19 -11 -82 7 -82 23 0 13 -2 13 -9 2 -7 -10 -13 -11
-31 -1 -12 6 -33 14 -48 16 -36 7 -39 10 -44 44 -4 25 -1 30 16 30 12 0 16 3
10 8 -6 4 -13 15 -17 25 -9 24 -27 21 -27 -5 0 -18 -2 -20 -10 -8 -8 12 -10
12 -16 -3 -4 -10 -2 -23 5 -30 6 -6 11 -15 11 -20 0 -8 -42 21 -125 88 -27 22
-55 45 -63 50 -7 6 -26 22 -41 38 -16 15 -32 27 -37 27 -20 1 -68 51 -69 71 0
12 -10 28 -22 36 -21 14 -23 14 -23 -1 0 -21 -24 -21 -41 0 -10 12 -30 15 -98
12 l-84 -3 -14 50 c-7 28 -11 58 -9 67 2 9 -1 19 -7 21 -6 2 -11 19 -11 39 -1
20 -4 34 -8 32 -4 -2 -8 8 -10 23 l-4 28 -12 -29 -13 -29 -103 5 c-121 7 -175
26 -224 83 -92 104 -94 219 -5 302 51 48 111 72 204 80 l67 6 12 -39 c16 -50
24 -58 39 -40 8 9 10 27 6 45 -9 40 -25 50 -25 15 0 -55 -11 -15 -15 57 -4 70
-4 72 8 34 19 -63 28 -72 43 -44 18 32 17 50 -1 43 -20 -8 -19 10 2 31 15 16
15 20 -8 68 -16 37 -24 72 -25 122 -1 39 -3 93 -4 120 -1 28 -1 58 -1 68 1 24
31 22 31 -2 0 -23 22 -40 28 -23 2 7 18 12 35 12 24 0 39 8 59 34 16 20 25 41
22 50 -3 9 -1 16 5 16 6 0 11 -11 11 -25 0 -14 6 -25 13 -25 7 0 18 -15 25
-32 l13 -33 12 35 c11 31 10 35 -6 38 -10 2 -23 16 -28 31 -8 23 -15 27 -34
23 -18 -3 -25 0 -25 12 0 9 -4 16 -10 16 -5 0 -10 7 -10 15 0 8 5 15 10 15 6
0 10 17 10 39 0 38 1 38 43 44 52 7 126 -6 139 -24 7 -11 11 -11 15 -1 2 6 14
12 26 12 12 0 17 -4 12 -8 -14 -9 -4 -56 13 -59 6 -2 13 2 13 7 1 6 2 15 3 20
1 14 28 30 38 24 4 -3 8 -18 8 -34 0 -16 5 -32 10 -35 6 -3 10 -1 10 6 0 7 11
29 25 49 l26 37 99 1 c54 0 103 3 108 6 5 3 33 1 63 -3 32 -6 58 -5 63 0 6 5
18 9 28 9 14 0 18 -8 18 -34 0 -22 6 -36 16 -40 18 -7 43 19 44 45 0 9 6 19
13 22 9 3 12 -5 9 -29 -4 -33 5 -43 24 -25 5 5 19 12 32 16 19 5 22 3 22 -20
0 -15 -7 -28 -17 -32 -10 -4 -22 -12 -28 -19 -17 -21 -80 -28 -96 -11 -12 13
-16 13 -30 1 -9 -8 -37 -16 -63 -18 -42 -3 -79 -16 -46 -16 9 0 8 -6 -5 -20
-10 -11 -15 -28 -12 -39 8 -34 -13 -95 -44 -129 -17 -18 -35 -32 -41 -32 -5 0
-7 -7 -4 -16 3 -8 -1 -25 -8 -37 -8 -12 -17 -52 -20 -89 -4 -59 -2 -67 15 -71
10 -3 21 -1 24 3 3 5 -3 11 -12 13 -14 4 -13 5 4 6 13 0 22 6 20 13 -1 6 6 14
16 16 10 2 17 -2 17 -12 0 -9 -7 -16 -15 -16 -15 0 -22 -19 -7 -21 4 0 20 -3
36 -5 23 -4 27 -2 23 10 -4 9 -2 16 3 16 6 0 10 9 10 21 0 28 25 19 26 -10 1
-12 6 -27 12 -33 14 -14 42 -3 42 17 0 29 55 95 97 115 23 12 43 24 45 28 5
11 77 42 96 42 10 0 28 13 40 30 17 23 30 30 55 30 50 -1 86 3 85 10 0 3 3 15
7 28 6 19 12 22 35 17 25 -6 30 -3 41 29 7 20 16 36 20 36 4 0 17 19 29 42 16
31 20 50 15 78 -5 31 -2 42 15 58 12 11 27 18 34 16 7 -3 12 4 12 16 0 22 -12
27 -18 8 -5 -14 -38 -4 -38 12 0 6 25 10 58 10 l57 0 -3 -147z m-122 133 c0
-2 -7 -6 -15 -10 -8 -3 -15 -1 -15 4 0 6 7 10 15 10 8 0 15 -2 15 -4z m887
-28 c-3 -7 -5 -2 -5 12 0 14 2 19 5 13 2 -7 2 -19 0 -25z m-1060 16 c-3 -3
-12 -4 -19 -1 -8 3 -5 6 6 6 11 1 17 -2 13 -5z m-167 -13 c0 -6 -4 -13 -10
-16 -5 -3 -10 1 -10 9 0 9 5 16 10 16 6 0 10 -4 10 -9z m-1018 -6 c11 -4 13
-21 10 -63 -3 -44 -9 -62 -27 -79 -13 -13 -28 -23 -34 -23 -5 0 -11 -6 -14
-12 -2 -7 -8 -9 -13 -5 -14 14 -8 149 8 158 7 5 9 9 3 10 -5 1 4 5 20 9 17 4
31 8 32 9 1 0 8 -1 15 -4z m1148 -70 c-15 -35 -24 -45 -29 -36 -11 18 -3 49
23 86 29 42 33 12 6 -50z m1880 -27 c-1 -110 -15 -101 -26 15 -6 68 -5 77 10
77 14 0 16 -13 16 -92z m-1692 50 c2 -8 -6 -26 -17 -39 -16 -20 -21 -21 -26
-8 -8 21 12 72 28 66 6 -2 13 -10 15 -19z m-1550 -136 c1 -26 5 -59 8 -74 3
-16 1 -28 -4 -28 -5 0 -13 24 -16 53 -4 28 -10 62 -13 75 -3 15 -1 22 8 22 10
0 15 -15 17 -48z m6402 28 c0 -5 -7 -10 -15 -10 -8 0 -15 5 -15 10 0 6 7 10
15 10 8 0 15 -4 15 -10z m-2074 -51 c84 -27 99 -44 83 -101 -6 -23 -12 -83
-13 -133 -1 -53 -6 -90 -12 -90 -6 0 -19 -9 -29 -19 -30 -30 -84 -48 -122 -41
-26 5 -33 3 -33 -10 0 -10 10 -15 31 -15 17 0 28 -4 24 -10 -6 -9 11 -14 43
-13 9 1 12 -6 8 -20 -3 -12 -6 -28 -6 -35 0 -7 -37 11 -82 40 -46 28 -132 76
-193 106 -60 30 -112 56 -114 58 -2 2 7 36 19 76 13 40 24 84 25 98 1 14 8 39
16 55 l14 30 95 -2 c94 -2 95 -2 50 11 -35 11 -39 14 -19 15 15 1 42 8 60 16
37 16 64 13 155 -16z m2044 21 c0 -5 9 -10 19 -10 22 0 37 -46 26 -79 -3 -11
0 -29 6 -40 10 -16 10 -36 -1 -103 -8 -46 -14 -129 -15 -185 0 -57 -3 -103 -7
-103 -5 0 -8 -15 -8 -34 0 -19 -4 -38 -10 -41 -17 -10 -12 -85 5 -85 12 0 15
-15 16 -72 2 -127 -3 -243 -9 -248 -4 -3 -8 -18 -9 -35 -6 -90 -14 -145 -28
-178 -12 -29 -15 -76 -14 -224 2 -394 -1 -442 -39 -489 -14 -16 -26 -20 -55
-16 -20 2 -37 8 -37 13 0 5 -8 9 -17 9 -42 1 -43 7 -44 251 -1 233 1 273 14
285 3 4 2 14 -3 24 -5 10 -7 20 -3 24 3 3 5 38 4 78 -1 44 6 109 18 163 11 50
23 134 27 188 4 53 10 97 15 97 14 0 22 42 9 50 -10 6 -10 26 -3 86 8 58 11
68 12 37 0 -24 6 -43 11 -43 14 0 13 73 -2 88 -9 9 -8 16 5 30 13 14 14 21 5
30 -9 9 -9 12 0 12 7 0 12 16 12 40 0 22 -4 40 -10 40 -5 0 -8 35 -7 80 1 71
3 80 20 80 18 0 19 7 16 83 -4 112 -1 157 10 157 6 0 12 -19 14 -42 l4 -43 1
49 c1 30 9 57 19 68 18 20 33 24 33 8z m-11310 -172 c0 -79 -4 -128 -10 -128
-6 0 -10 54 -10 143 0 95 3 137 10 127 5 -8 10 -72 10 -142z m8200 126 c0 -8
-5 -12 -10 -9 -6 4 -8 11 -5 16 9 14 15 11 15 -7z m472 7 c-8 -5 -12 -23 -10
-46 3 -37 2 -38 -29 -39 -36 -1 -62 -19 -44 -30 6 -4 11 -2 11 4 0 13 51 6 88
-12 33 -17 27 -23 -24 -26 -42 -3 -107 12 -128 30 -10 8 43 60 54 53 13 -8 50
26 50 46 0 13 -4 18 -12 13 -7 -4 -8 -3 -4 4 4 7 19 12 34 12 18 0 23 -3 14
-9z m55 3 c-3 -3 -12 -4 -19 -1 -8 3 -5 6 6 6 11 1 17 -2 13 -5z m81 -11 c-10
-2 -26 -2 -35 0 -10 3 -2 5 17 5 19 0 27 -2 18 -5z m-238 -22 c0 -5 -9 -7 -20
-4 -11 3 -20 7 -20 9 0 2 9 4 20 4 11 0 20 -4 20 -9z m186 -21 c8 0 14 -6 14
-13 0 -23 -64 -16 -68 7 -2 11 0 16 6 12 6 -3 14 -1 18 6 6 9 9 9 12 0 2 -7
10 -12 18 -12z m64 -10 c0 -14 -6 -20 -22 -19 -17 1 -19 2 -5 6 9 2 17 11 17
19 0 8 2 14 5 14 3 0 5 -9 5 -20z m-1431 -117 c6 -39 11 -96 11 -125 0 -50 -2
-54 -32 -68 -39 -18 -48 -40 -17 -40 12 0 20 -3 16 -6 -3 -4 -18 -3 -32 0 -41
10 -61 67 -64 184 -2 99 -2 100 26 120 34 24 66 32 74 17 4 -5 12 -42 18 -82z
m1355 33 c-3 -9 -10 -13 -15 -10 -5 3 -3 11 4 19 15 16 19 13 11 -9z m-188
-31 c56 -6 158 -34 152 -41 -4 -3 -33 1 -134 22 -11 2 -36 6 -55 8 -19 3 -35
5 -37 5 -2 1 0 6 3 11 4 6 10 8 14 5 5 -2 30 -7 57 -10z m-10326 -20 c206 -8
492 -19 635 -25 143 -6 280 -15 303 -22 92 -24 172 -138 172 -245 0 -86 -53
-175 -112 -187 -17 -3 -103 -1 -192 4 -88 5 -282 17 -431 25 -850 47 -822 44
-889 111 -90 90 -87 251 6 329 36 30 11 30 508 10z m10553 -2 c-7 -2 -19 -2
-25 0 -7 3 -2 5 12 5 14 0 19 -2 13 -5z m127 -148 c0 -3 -72 17 -78 21 -2 1 2
12 8 25 l12 22 29 -33 c16 -18 29 -34 29 -35z m-1063 19 c-3 -3 -12 -4 -19 -1
-8 3 -5 6 6 6 11 1 17 -2 13 -5z m-8233 -20 c9 -8 16 -31 16 -49 0 -31 -3 -34
-29 -33 -37 1 -60 43 -41 77 13 25 33 27 54 5z m2336 -4 c107 -6 335 -17 507
-25 327 -16 375 -24 444 -69 73 -48 121 -163 105 -249 -15 -80 -113 -150 -227
-163 -30 -3 -198 1 -374 10 -176 8 -437 20 -580 26 -306 13 -369 22 -428 61
-53 35 -95 108 -104 178 -11 92 40 190 119 230 47 24 64 24 538 1z m3084 -70
c5 -34 4 -42 -5 -33 -6 6 -13 33 -16 60 -5 60 11 39 21 -27z m3799 54 c-3 -9
0 -19 6 -24 9 -5 4 -9 -13 -12 -22 -4 -24 -3 -15 13 7 15 6 17 -6 13 -8 -4
-15 -2 -15 3 0 15 11 23 31 23 13 0 16 -5 12 -16z m-43 -59 c0 -18 -16 -20
-23 -2 -4 7 -6 6 -6 -5 -1 -9 -7 -19 -13 -21 -8 -3 -6 -6 5 -6 17 -1 25 -21 7
-21 -11 0 -1 -30 17 -48 17 -17 16 -27 -3 -46 -9 -9 -14 -28 -12 -44 2 -22 0
-26 -16 -24 -17 3 -18 2 -6 -13 15 -18 8 -29 -32 -49 -12 -7 -22 -18 -20 -26
2 -8 -3 -10 -15 -5 -36 15 -53 17 -53 7 0 -5 15 -15 33 -23 46 -19 60 -42 31
-53 -10 -4 -13 -2 -8 6 5 8 -2 9 -25 5 -24 -5 -33 -3 -38 9 -4 10 -13 14 -27
10 -17 -4 -24 1 -33 25 -10 26 -10 29 5 25 9 -3 24 -1 32 4 12 7 12 12 2 22
-9 9 -12 9 -12 0 0 -7 -5 -12 -10 -12 -9 0 42 80 80 125 9 11 38 55 64 98 44
71 76 98 76 62z m52 -12 c10 -9 18 -23 17 -32 0 -10 -4 -6 -11 9 -6 15 -12 20
-15 13 -7 -19 -20 -16 -26 7 -6 24 10 26 35 3z m-9261 -57 c1 -28 3 -73 4
-101 3 -58 -14 -85 -55 -85 -33 0 -40 14 -40 79 0 97 11 141 39 155 39 21 51
10 52 -48z m7809 52 c0 -4 -8 -8 -17 -8 -10 0 -27 -3 -39 -6 -13 -3 -21 -1
-21 8 0 8 14 13 39 13 21 1 38 -3 38 -7z m4394 -60 c14 -17 26 -85 26 -146 0
-96 -15 -146 -49 -163 -14 -8 -44 -26 -66 -41 -36 -23 -42 -25 -65 -13 -41 21
-55 59 -54 149 1 103 14 143 68 200 l42 46 48 -14 c26 -8 49 -16 50 -18z
m-5393 -49 c2 -44 -16 -89 -36 -89 -18 0 -20 32 -4 81 6 19 13 40 15 48 8 24
24 -2 25 -40z m2419 -19 c0 -5 -5 -10 -11 -10 -5 0 -7 5 -4 10 3 6 8 10 11 10
2 0 4 -4 4 -10z m-9129 -156 c13 -60 10 -189 -6 -211 -8 -12 -11 -24 -6 -27 4
-3 11 -88 15 -188 4 -101 9 -202 12 -225 6 -39 4 -43 -15 -43 -11 0 -21 3 -21
8 -1 4 -6 68 -12 142 -6 74 -12 175 -14 224 -1 48 -7 93 -13 99 -7 7 -11 58
-11 128 0 114 1 118 23 122 35 7 42 2 48 -29z m-101 16 c0 -5 -7 -10 -15 -10
-8 0 -15 5 -15 10 0 6 7 10 15 10 8 0 15 -4 15 -10z m-285 -10 c-3 -6 2 -14
13 -18 63 -24 102 -91 102 -174 0 -44 -18 -113 -27 -104 -7 6 -63 -14 -63 -24
0 -4 -17 -6 -39 -5 -31 2 -48 11 -85 47 -25 25 -46 52 -46 60 0 9 -7 21 -16
29 -21 17 -9 103 18 134 18 21 62 41 81 37 4 -1 7 2 7 7 0 8 12 13 53 20 5 0
5 -4 2 -9z m9425 -12 c0 -16 -3 -19 -11 -11 -6 6 -8 16 -5 22 11 17 16 13 16
-11z m-177 -49 c4 -3 0 -12 -9 -20 -15 -12 -17 -12 -9 0 6 11 4 13 -9 8 -14
-6 -15 -3 -5 14 6 11 14 17 17 12 4 -4 11 -10 15 -14z m184 -45 c-3 -3 -12 -4
-19 -1 -8 3 -5 6 6 6 11 1 17 -2 13 -5z m1383 -29 c0 -20 5 -25 24 -25 17 0
26 -7 30 -25 4 -14 11 -25 16 -25 18 0 12 -197 -6 -233 -9 -18 -20 -34 -23
-37 -10 -8 -7 -80 3 -80 5 0 1 -9 -9 -20 -17 -19 -17 -21 0 -40 10 -11 13 -20
7 -20 -7 0 -12 -15 -12 -36 0 -19 -7 -43 -16 -52 -12 -12 -15 -27 -10 -61 7
-54 -3 -171 -15 -171 -5 0 -9 18 -9 40 0 22 5 40 10 40 6 0 10 11 10 25 0 28
-15 34 -24 9 -3 -9 -6 -37 -6 -64 0 -29 -5 -50 -12 -53 -9 -4 -4 -14 15 -31
31 -29 35 -46 10 -46 -17 -1 -17 -1 0 -11 28 -17 20 -33 -27 -50 -41 -15 -44
-15 -55 3 -7 11 -9 28 -6 39 4 11 2 19 -4 19 -13 0 -15 72 -2 85 5 6 12 48 15
95 15 195 18 220 26 220 5 0 4 13 -1 30 -11 31 -9 85 10 210 6 41 7 76 3 78
-9 3 18 180 31 200 13 20 27 14 27 -13z m-1480 -5 c0 -5 -4 -10 -10 -10 -5 0
-10 5 -10 10 0 6 5 10 10 10 6 0 10 -4 10 -10z m-230 -84 c0 -3 -4 -8 -10 -11
-5 -3 -10 -1 -10 4 0 6 5 11 10 11 6 0 10 -2 10 -4z m-460 -47 c0 -5 4 -8 9
-5 13 9 123 -48 114 -59 -4 -4 -3 -5 4 -1 18 10 73 -21 67 -38 -6 -17 -30 -15
-114 7 -80 22 -152 25 -158 8 -3 -8 0 -11 7 -7 15 10 155 -12 159 -24 2 -6 7
-8 11 -5 5 2 25 -4 45 -14 22 -12 32 -22 26 -26 -6 -4 -14 -4 -17 -1 -3 3 -12
1 -20 -6 -10 -8 -17 -8 -25 0 -9 9 -16 8 -30 -5 -14 -12 -21 -13 -32 -4 -8 7
-24 10 -35 6 -14 -4 -23 0 -31 15 -12 23 -50 27 -50 5 0 -8 4 -15 8 -15 5 0
14 -24 21 -52 8 -29 17 -57 21 -63 4 -5 7 -29 6 -53 0 -23 2 -42 6 -42 4 0 20
16 35 35 15 20 45 54 66 76 32 35 36 44 25 58 -11 14 -11 14 2 4 12 -9 21 -5
45 19 26 26 35 29 68 25 30 -4 43 -1 59 15 17 17 21 18 31 5 14 -17 64 -49
162 -102 117 -63 132 -85 56 -77 -50 4 -78 -11 -41 -23 11 -3 20 -12 20 -20 0
-8 7 -11 19 -8 17 4 19 0 16 -31 -2 -19 -8 -43 -13 -52 -16 -28 -125 -134
-138 -134 -7 0 -14 -6 -17 -12 -2 -7 -8 -9 -13 -5 -5 5 -1 13 9 18 9 6 17 15
17 21 0 7 -6 6 -15 -2 -19 -16 -34 -5 -17 12 23 23 12 29 -14 9 -15 -12 -33
-21 -40 -21 -7 0 -16 -10 -20 -22 -4 -13 -20 -36 -36 -51 -23 -22 -32 -26 -43
-17 -10 8 -14 7 -17 -6 -3 -15 -7 -14 -33 9 -26 23 -28 28 -15 38 13 9 12 10
-3 5 -13 -4 -32 8 -65 39 -40 39 -48 44 -58 30 -15 -21 -36 -19 -57 5 -20 24
-22 36 -4 44 10 5 10 7 0 12 -7 3 -13 16 -13 29 0 13 -6 30 -12 37 -7 7 -13
18 -13 23 -2 40 -21 101 -38 121 l-20 24 -17 -28 c-13 -20 -15 -30 -6 -41 13
-16 15 -17 -77 24 -37 16 -67 33 -67 38 0 5 7 7 15 3 8 -3 15 -1 15 4 0 6 -4
10 -10 10 -25 0 -5 36 53 94 51 52 69 65 105 70 28 4 42 11 42 22 0 9 5 12 12
8 8 -5 9 -2 5 9 -3 10 -2 17 3 17 6 0 10 7 10 15 0 9 9 15 25 15 14 0 25 -5
25 -11z m545 1 c-3 -5 -10 -10 -16 -10 -5 0 -9 5 -9 10 0 6 7 10 16 10 8 0 12
-4 9 -10z m-95 -15 c11 -13 10 -14 -4 -9 -9 3 -16 10 -16 15 0 13 6 11 20 -6z
m-60 -35 c0 -5 -5 -10 -11 -10 -5 0 -7 5 -4 10 3 6 8 10 11 10 2 0 4 -4 4 -10z
m0 -55 c0 -8 -8 -15 -17 -14 -11 0 -13 3 -5 6 6 2 10 9 6 14 -3 5 0 9 5 9 6 0
11 -7 11 -15z m-872 -38 c5 -24 -15 -21 -21 4 -3 13 -1 19 6 16 7 -2 13 -11
15 -20z m-9204 -12 c17 -7 59 -36 94 -64 35 -28 73 -51 86 -51 12 0 37 16 56
35 52 54 84 58 339 50 198 -6 229 -10 260 -27 62 -35 127 -113 148 -178 8 -25
10 -124 6 -335 -7 -387 -7 -375 18 -400 l20 -20 20 24 19 23 0 -29 c0 -18 -10
-41 -24 -56 -14 -15 -20 -29 -15 -32 16 -11 10 -35 -10 -35 -23 0 -38 17 -43
50 -3 22 -7 25 -38 22 -19 -1 -53 -8 -74 -14 -31 -10 -40 -10 -44 0 -2 7 -8
12 -13 12 -6 0 -7 -4 -4 -10 4 -6 -5 -10 -19 -10 -15 0 -25 5 -23 12 1 7 -19
16 -47 23 -40 9 -54 18 -71 46 -34 53 -48 60 -137 71 -46 5 -88 14 -94 19 -6
5 -16 27 -23 48 -6 22 -23 54 -37 70 -39 47 -77 55 -348 75 l-178 13 -48 51
c-35 37 -59 53 -87 58 -21 4 -54 15 -73 25 -36 20 -80 25 -80 10 0 -5 -9 -11
-20 -14 -11 -3 -18 -1 -15 3 3 5 1 11 -4 14 -5 3 -9 39 -8 79 1 68 -1 75 -39
134 -37 56 -41 68 -42 130 l-1 68 58 38 c56 35 113 48 125 29 3 -5 28 -10 55
-11 52 -1 112 18 143 45 19 18 109 34 152 27 16 -3 43 -11 60 -18z m4561 -65
c143 -5 343 -15 445 -21 170 -10 190 -13 245 -40 34 -15 75 -44 93 -63 l31
-35 -27 -5 c-15 -4 -144 -22 -286 -41 -143 -19 -263 -38 -267 -42 -4 -5 -28
-49 -53 -99 l-44 -91 -49 4 c-26 1 -137 7 -245 13 -216 10 -249 18 -306 73
-19 18 -45 54 -59 82 -22 42 -25 58 -20 110 6 62 26 113 52 135 38 32 111 35
490 20z m1655 -69 c0 -5 -9 -11 -21 -14 -16 -4 -18 -3 -8 9 13 16 29 19 29 5z
m3350 -6 c0 -8 -4 -15 -10 -15 -5 0 -7 7 -4 15 4 8 8 15 10 15 2 0 4 -7 4 -15z
m-280 -45 c0 -16 -7 -20 -35 -20 -33 0 -35 2 -25 20 6 12 21 20 35 20 18 0 25
-5 25 -20z m-3394 -38 c-11 -10 -15 4 -8 28 l7 25 3 -23 c2 -13 1 -26 -2 -30z
m3572 -112 c7 -23 43 -59 56 -56 6 2 8 1 4 -1 -5 -3 -8 -11 -8 -18 0 -8 -7
-18 -16 -23 -11 -6 -13 -11 -5 -16 6 -4 11 -15 11 -24 -1 -12 -4 -10 -14 8
-10 17 -11 30 -4 43 7 14 6 23 -2 31 -9 8 -14 8 -17 -1 -3 -7 -20 -2 -51 15
-37 21 -44 22 -32 7 13 -15 13 -17 1 -14 -23 8 -24 26 -2 46 24 22 72 24 79 3z
m162 10 c0 -5 -5 -10 -11 -10 -5 0 -7 5 -4 10 3 6 8 10 11 10 2 0 4 -4 4 -10z
m-105 -48 c-2 -2 -13 2 -24 10 -12 8 -18 17 -15 21 3 3 14 -2 25 -11 10 -9 17
-18 14 -20z m-410 -44 c32 -18 36 -25 31 -50 -5 -27 -4 -29 22 -27 20 2 37 -5
58 -24 19 -18 23 -26 10 -21 -16 6 -17 5 -7 -14 12 -22 -1 -32 -14 -12 -14 23
-31 9 -27 -22 4 -24 2 -30 -10 -26 -22 9 -46 -8 -32 -22 13 -13 7 -50 -8 -50
-6 0 -7 7 -4 16 3 8 2 13 -2 10 -4 -2 -14 -1 -22 4 -9 6 -18 3 -27 -8 -12 -16
-12 -16 -13 0 0 9 -5 20 -12 24 -8 5 -9 2 -5 -9 3 -9 2 -19 -2 -22 -5 -3 -7
-14 -4 -25 4 -16 8 -18 19 -9 11 9 14 8 14 -5 0 -10 -9 -16 -25 -16 -18 0 -23
4 -19 15 4 8 1 15 -5 15 -8 0 -9 5 -1 19 14 27 13 31 -11 31 -18 0 -20 4 -15
25 7 26 6 26 -19 9 -24 -16 -27 -16 -45 1 -10 9 -24 14 -29 10 -6 -3 -11 -1
-11 4 0 6 -7 11 -15 11 -9 0 -18 7 -22 17 -6 14 -7 13 -14 -4 -11 -29 0 -65
17 -59 9 3 14 -2 14 -14 0 -27 -9 -25 -50 10 -24 22 -29 30 -17 30 9 0 17 3
17 8 0 4 -23 6 -51 5 -92 -4 -91 8 11 76 184 123 251 143 325 99z m1625 8 c0
-8 -7 -16 -15 -20 -12 -4 -13 -2 -2 14 14 24 17 25 17 6z m-1185 -16 c-5 -16
-2 -20 17 -20 18 0 20 -2 8 -10 -20 -12 -43 10 -34 33 9 24 17 21 9 -3z m-267
-57 c-11 -14 -10 -15 10 -9 19 6 22 4 22 -18 0 -13 3 -33 6 -43 4 -10 -9 -2
-30 19 l-37 38 18 31 c13 22 19 26 21 14 2 -9 -2 -23 -10 -32z m-2668 22 c0
-8 -4 -15 -10 -15 -5 0 -10 7 -10 15 0 8 5 15 10 15 6 0 10 -7 10 -15z m3023
-8 c10 -4 17 -17 17 -31 0 -19 7 -27 25 -32 20 -5 24 -11 19 -26 -4 -15 -2
-19 12 -16 24 4 29 -18 4 -25 -13 -3 -20 0 -20 9 0 8 -5 14 -11 14 -6 0 -9 7
-5 15 3 9 0 15 -9 15 -18 0 -49 46 -40 60 3 5 -1 10 -9 10 -9 0 -16 8 -16 18
0 10 3 13 8 6 4 -6 15 -13 25 -17z m1059 14 c-8 -4 -13 -11 -12 -15 3 -13 -7
-31 -14 -24 -10 9 12 48 27 48 8 0 8 -3 -1 -9z m17 -62 c-10 -19 -9 -21 5 -16
15 6 16 0 13 -41 -5 -54 -18 -87 -47 -121 -20 -23 -21 -23 -35 -5 -18 23 -19
86 -3 102 9 9 8 12 -5 12 -20 0 -20 1 -5 37 6 15 11 37 10 48 -1 11 1 14 4 8
9 -20 42 -15 56 7 18 28 24 0 7 -31z m-5481 29 c7 -7 12 -19 12 -28 0 -19 -97
-147 -158 -208 -23 -24 -40 -47 -37 -52 4 -6 22 -10 41 -10 76 0 145 -63 180
-163 21 -58 30 -192 15 -202 -13 -7 -40 21 -41 42 0 7 -9 37 -21 68 -23 61
-59 107 -86 110 -10 1 -31 7 -46 13 -16 7 -47 12 -70 12 -23 0 -71 3 -107 7
-59 7 -65 10 -63 30 2 15 -6 28 -22 39 -14 9 -25 24 -25 33 0 17 55 81 71 81
5 0 9 7 9 17 0 21 47 83 64 83 8 0 17 18 21 43 7 36 9 38 12 15 3 -15 0 -35
-5 -44 -12 -22 16 -74 40 -74 9 0 34 27 57 59 42 62 118 140 137 141 5 0 15
-5 22 -12z m517 2 c3 -5 1 -10 -4 -10 -6 0 -11 5 -11 10 0 6 2 10 4 10 3 0 8
-4 11 -10z m3798 -15 c-3 -8 -1 -15 5 -15 6 0 8 -9 5 -20 -6 -24 -16 -25 -33
-5 -10 12 -10 15 1 15 11 0 11 2 0 9 -12 8 -12 12 -2 25 16 19 33 12 24 -9z
m-128 -33 c-6 -7 -34 11 -29 19 3 5 11 3 19 -4 7 -6 12 -13 10 -15z m137 -44
c-11 -11 -32 -3 -32 12 0 4 9 6 21 3 13 -4 17 -9 11 -15z m-7015 -25 c21 -26
-2 -55 -40 -51 -27 3 -33 8 -35 32 -2 16 2 32 10 37 17 11 49 2 65 -18z m6133
17 c0 -5 -6 -10 -14 -10 -8 0 -18 5 -21 10 -3 6 3 10 14 10 12 0 21 -4 21 -10z
m750 6 c0 -3 -4 -8 -10 -11 -5 -3 -10 -1 -10 4 0 6 5 11 10 11 6 0 10 -2 10
-4z m-3760 -16 c0 -5 -5 -10 -11 -10 -5 0 -7 5 -4 10 3 6 8 10 11 10 2 0 4 -4
4 -10z m2953 -4 c8 -19 -1 -26 -36 -26 -29 0 -30 0 -12 20 21 23 41 26 48 6z
m-2913 -6 c0 -5 -5 -10 -11 -10 -5 0 -7 5 -4 10 3 6 8 10 11 10 2 0 4 -4 4
-10z m3514 -5 c3 -8 1 -15 -4 -15 -6 0 -10 7 -10 15 0 8 2 15 4 15 2 0 6 -7
10 -15z m341 6 c10 -17 -12 -21 -25 -6 -10 12 -10 15 3 15 9 0 18 -4 22 -9z
m-284 -18 c13 -16 12 -17 -3 -4 -17 13 -22 21 -14 21 2 0 10 -8 17 -17z
m-7026 -14 c0 -7 -8 -15 -17 -17 -18 -3 -25 18 -11 32 10 10 28 1 28 -15z
m3142 -1 c-3 -8 -6 -5 -6 6 -1 11 2 17 5 13 3 -3 4 -12 1 -19z m4023 12 c0 -5
-2 -10 -4 -10 -3 0 -8 5 -11 10 -3 6 -1 10 4 10 6 0 11 -4 11 -10z m335 0 c8
-13 -5 -13 -25 0 -13 8 -13 10 2 10 9 0 20 -4 23 -10z m-751 -50 c-14 -14 -38
6 -30 25 5 15 7 15 22 0 10 -10 13 -20 8 -25z m-3564 20 c0 -5 -4 -10 -10 -10
-5 0 -10 5 -10 10 0 6 5 10 10 10 6 0 10 -4 10 -10z m3816 -3 c18 7 18 6 1
-11 -10 -10 -19 -17 -20 -15 -2 2 -9 13 -17 24 -14 18 -13 19 1 7 9 -7 25 -9
35 -5z m289 3 c-3 -5 -10 -10 -16 -10 -5 0 -9 5 -9 10 0 6 7 10 16 10 8 0 12
-4 9 -10z m-1312 -42 c-2 -4 9 -8 24 -10 21 -2 28 -9 29 -25 1 -12 15 -35 32
-51 36 -33 34 -62 -4 -82 -21 -12 -26 -11 -43 8 -24 28 -39 28 -52 -1 -9 -21
-19 -24 -65 -26 -44 -1 -59 -7 -86 -31 -18 -16 -54 -37 -81 -46 -27 -9 -51
-22 -54 -30 -3 -8 -15 -15 -27 -15 -16 -1 -17 -2 -3 -6 18 -5 24 -23 7 -23 -6
0 -7 -18 -3 -45 5 -40 4 -45 -12 -39 -15 6 -16 3 -10 -24 4 -21 3 -32 -4 -32
-6 0 -11 4 -11 9 0 14 -54 7 -74 -9 -9 -8 -32 -29 -51 -47 -20 -19 -47 -33
-66 -35 -26 -2 -36 -11 -52 -42 -12 -23 -31 -42 -49 -48 -17 -6 -28 -17 -28
-29 0 -10 -3 -18 -7 -17 -10 3 -56 -22 -65 -35 -9 -15 -40 -18 -55 -5 -7 6
-13 23 -13 39 0 30 29 99 41 99 4 0 28 17 52 38 93 77 381 295 485 366 60 41
99 89 113 138 13 45 53 90 75 81 6 -2 15 0 18 6 7 11 45 -19 39 -31z m707 27
c0 -8 8 -15 18 -16 13 0 12 -2 -6 -9 -22 -9 -52 -4 -52 9 0 10 22 31 32 31 4
0 8 -7 8 -15z m157 -27 c-3 -8 -6 -5 -6 6 -1 11 2 17 5 13 3 -3 4 -12 1 -19z
m83 -8 c-6 -12 -14 -20 -17 -17 -2 3 1 14 8 26 17 26 24 19 9 -9z m-2399 -2
c-5 -14 -18 -24 -32 -26 -24 -3 -24 -3 4 23 35 31 39 31 28 3z m-431 -8 c0 -5
-7 -10 -15 -10 -8 0 -15 5 -15 10 0 6 7 10 15 10 8 0 15 -4 15 -10z m-314 -37
c-10 -10 -19 5 -10 18 6 11 8 11 12 0 2 -7 1 -15 -2 -18z m-3219 -51 c67 6
128 8 137 5 12 -5 13 -23 9 -105 -7 -120 -1 -147 35 -164 24 -12 27 -19 30
-68 2 -42 -1 -57 -13 -67 -19 -13 -44 -7 -62 15 -11 14 -18 13 -60 -6 -123
-55 -273 -44 -273 20 0 10 9 31 20 46 28 38 38 105 29 187 -4 39 -8 87 -8 108
-1 33 1 37 17 28 11 -6 62 -5 139 1z m-2833 -88 c58 -8 60 -24 2 -24 -56 0
-106 10 -106 21 0 11 39 11 104 3z m234 -19 c32 -11 6 -24 -45 -23 -66 1 -114
15 -95 27 12 7 115 4 140 -4z m14956 -56 c24 -11 60 -39 80 -62 93 -107 142
-136 206 -122 40 9 109 -14 127 -42 20 -30 13 -114 -14 -162 -19 -35 -59 -81
-71 -81 -4 0 -21 -14 -39 -30 -18 -17 -37 -30 -42 -30 -6 0 -15 -9 -21 -20 -6
-11 -17 -17 -25 -14 -9 4 -21 -8 -34 -34 -16 -32 -31 -44 -68 -58 -27 -10 -54
-24 -61 -31 -7 -7 -25 -13 -38 -13 -14 0 -35 -5 -47 -12 -29 -16 -138 -11
-158 8 -8 8 -21 14 -27 14 -6 0 -16 9 -22 21 -7 11 -14 18 -17 16 -13 -14 -75
84 -81 127 -7 54 -1 162 10 195 11 31 46 94 71 126 4 6 26 38 48 71 56 86 95
127 132 141 43 16 41 16 91 -8z m-13932 -56 c1 -4 8 -13 17 -20 14 -10 13 -13
-9 -21 -29 -11 -60 1 -60 24 0 8 10 18 23 23 23 9 28 8 29 -6z m7218 -12 c5
-11 10 -35 10 -53 0 -26 -8 -39 -36 -62 -37 -29 -97 -51 -114 -41 -5 3 -14 -4
-20 -15 -11 -20 -44 -27 -54 -11 -6 10 16 61 27 61 4 0 7 6 7 14 0 8 13 23 29
32 16 9 27 22 25 28 -7 19 10 34 51 49 55 20 63 20 75 -2z m-7031 -67 c72 -5
87 -10 108 -32 12 -14 23 -30 23 -35 0 -6 -7 -2 -16 9 -13 16 -15 16 -10 2 3
-12 0 -18 -9 -18 -8 0 -20 -10 -26 -22 -7 -13 -20 -29 -29 -35 -10 -7 -34 -37
-54 -67 -44 -66 -80 -96 -115 -96 -31 0 -68 30 -82 67 -13 36 -11 129 5 167
19 45 63 78 95 72 14 -3 64 -8 110 -12z m4065 -26 c32 -45 9 -88 -46 -88 -76
0 -95 85 -23 103 40 10 54 7 69 -15z m-4454 -40 c0 -21 -12 -23 -43 -7 -49 26
-37 55 14 36 17 -7 29 -19 29 -29z m616 10 c-18 -26 -22 -17 -5 14 6 11 13 17
16 15 3 -3 -2 -16 -11 -29z m5298 -86 c3 -5 -7 -26 -21 -47 -15 -22 -28 -34
-31 -27 -2 7 -12 12 -23 12 -27 0 -23 14 9 31 15 8 31 20 35 26 9 15 23 17 31
5z m1119 -104 c-15 -16 -47 -35 -70 -41 -30 -8 -43 -16 -43 -29 0 -10 -4 -18
-10 -18 -5 0 -10 -6 -10 -12 -1 -39 -95 -98 -156 -98 -12 0 -34 -10 -49 -22
-15 -12 -39 -23 -54 -25 -14 -2 -45 -6 -68 -9 -36 -5 -43 -3 -58 19 -38 59 7
115 73 91 42 -16 115 10 214 77 48 32 89 59 92 59 3 0 22 10 43 23 20 12 55
29 78 37 38 15 40 15 43 -3 2 -11 -9 -32 -25 -49z m-10868 -145 c-11 -41 -25
-111 -33 -169 -5 -29 -14 -59 -22 -69 -13 -15 -14 -15 -23 1 -15 26 -8 180 9
225 14 33 21 39 46 39 28 0 30 -2 23 -27z m9521 -18 c19 -15 19 -15 -5 -35
-27 -23 -59 -26 -84 -7 -20 14 -11 32 23 46 35 14 43 13 66 -4z m1322 -112
c-3 -25 -7 -28 -38 -28 -28 0 -36 4 -38 22 -3 22 10 30 56 32 20 1 23 -3 20
-26z m-3928 -24 c0 -10 -9 -28 -21 -40 -19 -19 -28 -20 -87 -14 -73 8 -92 13
-92 26 0 16 45 34 110 45 75 12 90 9 90 -17z m3770 -29 c0 -5 -4 -10 -9 -10
-5 0 -13 -10 -16 -21 -4 -12 -10 -17 -14 -11 -3 5 -15 12 -26 14 -18 3 -17 6
10 21 34 19 55 21 55 7z"/>
<path d="M12118 7403 c7 -3 16 -2 19 1 4 3 -2 6 -13 5 -11 0 -14 -3 -6 -6z"/>
<path d="M3124 5925 c-19 -47 -18 -66 4 -58 24 9 32 23 32 61 0 42 -17 41 -36
-3z"/>
<path d="M3176 5798 c-19 -10 -21 -56 -5 -110 12 -45 34 -53 116 -45 74 8 84
18 80 80 -5 55 -14 64 -72 71 -92 12 -105 12 -119 4z"/>
<path d="M3441 5574 c0 -11 3 -14 6 -6 3 7 2 16 -1 19 -3 4 -6 -2 -5 -13z"/>
<path d="M3511 5563 c-9 -20 -12 -136 -10 -466 2 -417 3 -440 22 -463 14 -19
17 -33 13 -59 -5 -27 -4 -35 8 -35 26 0 29 83 17 534 -13 523 -17 561 -50 489z"/>
<path d="M10261 6334 c0 -11 3 -14 6 -6 3 7 2 16 -1 19 -3 4 -6 -2 -5 -13z"/>
<path d="M10855 5814 c-11 -8 -45 -27 -75 -42 l-54 -27 41 -3 c25 -2 48 -11
58 -23 11 -11 13 -19 7 -19 -7 0 -12 -5 -12 -11 0 -7 9 -9 23 -5 34 11 51 14
65 15 6 1 12 6 12 12 0 6 -9 8 -20 4 -18 -6 -80 21 -80 35 0 10 41 31 50 25 6
-4 7 1 3 11 -4 11 -2 15 4 11 9 -6 23 12 23 29 0 9 -26 2 -45 -12z"/>
<path d="M11017 5772 c-3 -4 -1 -16 4 -27 l8 -20 0 20 c1 17 3 17 11 5 8 -13
10 -13 10 1 0 17 -26 34 -33 21z"/>
<path d="M10653 5678 c0 -7 -3 -30 -7 -50 -8 -45 -3 -47 29 -12 30 32 31 50 6
64 -25 13 -28 13 -28 -2z"/>
<path d="M10400 6429 c1 -14 88 -84 96 -77 4 4 -36 43 -79 77 -14 11 -17 11
-17 0z"/>
<path d="M12724 5713 c3 -8 6 -21 6 -29 0 -8 5 -14 11 -14 6 0 9 6 6 14 -3 7
-1 18 4 23 7 7 3 12 -11 16 -16 4 -20 2 -16 -10z"/>
<path d="M12770 5706 c0 -2 8 -10 18 -17 15 -13 16 -12 3 4 -13 16 -21 21 -21
13z"/>
<path d="M13678 5969 c-17 -18 -17 -19 1 -19 10 0 21 9 24 20 6 25 -2 24 -25
-1z"/>
<path d="M13905 5980 c-3 -5 -1 -10 4 -10 6 0 11 5 11 10 0 6 -2 10 -4 10 -3
0 -8 -4 -11 -10z"/>
<path d="M13710 5959 c0 -5 5 -7 10 -4 6 3 10 8 10 11 0 2 -4 4 -10 4 -5 0
-10 -5 -10 -11z"/>
<path d="M13630 5950 c0 -5 5 -10 11 -10 5 0 7 5 4 10 -3 6 -8 10 -11 10 -2 0
-4 -4 -4 -10z"/>
<path d="M13812 5953 c-12 -2 -20 -9 -17 -14 9 -14 41 -11 55 6 13 16 10 17
-38 8z"/>
<path d="M13545 5940 c-3 -6 1 -7 9 -4 18 7 21 14 7 14 -6 0 -13 -4 -16 -10z"/>
<path d="M13770 5905 c-9 -11 -10 -15 -1 -15 7 0 19 7 27 15 13 13 13 15 1 15
-8 0 -20 -7 -27 -15z"/>
<path d="M13757 5873 c-4 -3 -7 -11 -7 -17 0 -6 5 -5 12 2 6 6 9 14 7 17 -3 3
-9 2 -12 -2z"/>
<path d="M13875 5830 c-10 -11 -13 -20 -7 -20 6 0 16 9 22 20 6 11 9 20 7 20
-2 0 -12 -9 -22 -20z"/>
<path d="M13305 5120 c-3 -5 -1 -10 4 -10 6 0 11 5 11 10 0 6 -2 10 -4 10 -3
0 -8 -4 -11 -10z"/>
<path d="M13220 4870 c0 -5 5 -10 11 -10 5 0 7 5 4 10 -3 6 -8 10 -11 10 -2 0
-4 -4 -4 -10z"/>
<path d="M13307 4810 c3 -11 9 -17 15 -14 5 3 4 12 -3 20 -16 19 -18 18 -12
-6z"/>
<path d="M13200 4136 c0 -8 5 -18 10 -21 6 -3 10 0 10 9 0 8 6 17 13 19 6 3 2
6 -10 6 -14 1 -23 -5 -23 -13z"/>
<path d="M12210 5520 c0 -5 5 -10 10 -10 6 0 10 5 10 10 0 6 -4 10 -10 10 -5
0 -10 -4 -10 -10z"/>
<path d="M12225 5460 c-3 -5 -1 -10 4 -10 6 0 11 5 11 10 0 6 -2 10 -4 10 -3
0 -8 -4 -11 -10z"/>
<path d="M9911 5190 c-17 -10 -7 -40 14 -40 8 0 15 9 15 19 0 24 -12 32 -29
21z"/>
<path d="M12060 4828 c-17 -19 -27 -48 -16 -48 2 0 13 16 25 35 23 40 21 45
-9 13z"/>
<path d="M12648 4513 c-7 -29 2 -53 19 -53 13 0 13 3 3 15 -7 8 -10 24 -7 35
3 11 2 20 -3 20 -4 0 -10 -8 -12 -17z"/>
<path d="M11890 4470 c0 -11 2 -20 4 -20 2 0 6 9 9 20 3 11 1 20 -4 20 -5 0
-9 -9 -9 -20z"/>
<path d="M12653 4340 c4 -14 7 -33 7 -43 0 -10 4 -16 9 -12 6 3 6 18 1 36 -11
38 -26 55 -17 19z"/>
<path d="M12200 4270 c-9 -17 -8 -20 10 -20 11 0 20 6 20 14 0 24 -18 28 -30
6z"/>
<path d="M12150 4260 c0 -5 5 -10 11 -10 5 0 7 5 4 10 -3 6 -8 10 -11 10 -2 0
-4 -4 -4 -10z"/>
<path d="M12536 4056 c10 -8 21 -12 24 -10 5 6 -21 24 -34 24 -6 0 -1 -6 10
-14z"/>
<path d="M12577 3983 c-4 -3 -7 -11 -7 -17 0 -6 5 -5 12 2 6 6 9 14 7 17 -3 3
-9 2 -12 -2z"/>
<path d="M12534 3938 c10 -6 22 -6 26 -2 5 5 -3 10 -18 11 -22 1 -24 0 -8 -9z"/>
<path d="M12540 3910 c-20 -12 -5 -24 16 -12 9 5 12 12 7 15 -5 3 -15 2 -23
-3z"/>
<path d="M12547 3803 c-10 -9 -9 -23 2 -23 5 0 11 7 15 15 5 15 -5 20 -17 8z"/>
<path d="M11915 3701 c3 -5 -1 -11 -7 -14 -7 -2 -10 -8 -6 -12 9 -9 38 1 38
14 0 5 -7 12 -16 15 -8 3 -13 2 -9 -3z"/>
<path d="M11989 3701 c11 -7 11 -9 0 -13 -8 -3 -11 -8 -8 -12 3 -3 14 3 24 14
18 19 17 20 -6 20 -17 0 -20 -3 -10 -9z"/>
<path d="M11840 3685 c0 -8 5 -15 10 -15 6 0 10 7 10 15 0 8 -4 15 -10 15 -5
0 -10 -7 -10 -15z"/>
<path d="M11572 3683 c-23 -2 -40 -8 -37 -14 4 -5 -1 -9 -10 -9 -9 0 -13 5
-10 10 4 6 -6 10 -24 10 -23 0 -29 -4 -25 -15 5 -12 25 -15 94 -15 83 0 88 1
83 20 -3 11 -10 19 -17 18 -6 -1 -30 -3 -54 -5z"/>
<path d="M11423 3665 c0 -8 4 -15 9 -15 4 0 8 7 8 15 0 8 -4 15 -8 15 -5 0 -9
-7 -9 -15z"/>
<path d="M12465 3670 c3 -5 8 -10 11 -10 2 0 4 5 4 10 0 6 -5 10 -11 10 -5 0
-7 -4 -4 -10z"/>
<path d="M12386 3655 c-4 -10 1 -15 14 -15 13 0 18 5 14 15 -4 8 -10 15 -14
15 -4 0 -10 -7 -14 -15z"/>
<path d="M12370 3610 c0 -11 2 -20 4 -20 2 0 6 9 9 20 3 11 1 20 -4 20 -5 0
-9 -9 -9 -20z"/>
<path d="M11607 3557 c-17 -26 -13 -62 5 -51 6 4 5 10 -3 15 -11 7 -10 11 5
22 10 8 17 20 14 27 -2 8 -10 4 -21 -13z"/>
<path d="M14616 4641 c-4 -7 -5 -15 -2 -18 9 -9 19 4 14 18 -4 11 -6 11 -12 0z"/>
<path d="M11313 4205 c0 -27 2 -38 4 -22 2 15 2 37 0 50 -2 12 -4 0 -4 -28z"/>
<path d="M14940 3959 c0 -5 5 -7 10 -4 6 3 10 8 10 11 0 2 -4 4 -10 4 -5 0
-10 -5 -10 -11z"/>
<path d="M14940 3930 c0 -5 5 -10 10 -10 6 0 10 5 10 10 0 6 -4 10 -10 10 -5
0 -10 -4 -10 -10z"/>
<path d="M14897 3923 c-12 -11 -8 -23 8 -23 9 0 12 -6 8 -17 -5 -15 -3 -15 9
1 13 16 13 22 2 33 -14 15 -18 16 -27 6z"/>
<path d="M14982 3890 c0 -14 2 -19 5 -12 2 6 2 18 0 25 -3 6 -5 1 -5 -13z"/>
<path d="M14940 3810 c0 -5 5 -10 11 -10 5 0 7 5 4 10 -3 6 -8 10 -11 10 -2 0
-4 -4 -4 -10z"/>
<path d="M14960 3750 c0 -5 4 -10 9 -10 6 0 13 5 16 10 3 6 -1 10 -9 10 -9 0
-16 -4 -16 -10z"/>
<path d="M14915 3740 c-3 -5 1 -10 9 -10 8 0 18 5 21 10 3 6 -1 10 -9 10 -8 0
-18 -4 -21 -10z"/>
<path d="M14865 3699 c-9 -14 -2 -20 14 -10 8 6 9 11 3 15 -6 3 -14 1 -17 -5z"/>
<path d="M14830 3675 c0 -8 5 -15 10 -15 6 0 10 7 10 15 0 8 -4 15 -10 15 -5
0 -10 -7 -10 -15z"/>
<path d="M14871 3621 c-8 -5 -9 -11 -3 -15 5 -3 12 1 16 9 6 17 6 18 -13 6z"/>
<path d="M14480 4409 c0 -5 5 -7 10 -4 6 3 10 8 10 11 0 2 -4 4 -10 4 -5 0
-10 -5 -10 -11z"/>
<path d="M14420 4376 c0 -2 7 -9 15 -16 9 -7 15 -8 15 -2 0 5 -7 12 -15 16 -8
3 -15 4 -15 2z"/>
<path d="M14070 4211 c0 -5 7 -11 15 -15 8 -3 15 -1 15 3 0 5 -7 11 -15 15 -8
3 -15 1 -15 -3z"/>
<path d="M13965 4120 c-3 -5 -1 -10 4 -10 6 0 11 5 11 10 0 6 -2 10 -4 10 -3
0 -8 -4 -11 -10z"/>
<path d="M14520 4100 c0 -5 5 -10 10 -10 6 0 10 5 10 10 0 6 -4 10 -10 10 -5
0 -10 -4 -10 -10z"/>
<path d="M14085 4090 c4 -6 11 -8 16 -5 14 9 11 15 -7 15 -8 0 -12 -5 -9 -10z"/>
<path d="M14357 4024 c-4 -4 -7 -14 -7 -23 0 -11 3 -12 11 -4 6 6 10 16 7 23
-2 6 -7 8 -11 4z"/>
<path d="M14321 4003 c-1 -6 -4 -20 -7 -30 -5 -17 -5 -17 6 0 6 10 9 23 6 30
-3 9 -5 9 -5 0z"/>
<path d="M14285 3960 c-3 -5 -1 -10 4 -10 6 0 11 5 11 10 0 6 -2 10 -4 10 -3
0 -8 -4 -11 -10z"/>
<path d="M14244 3945 c-9 -22 1 -29 15 -11 8 10 9 16 1 21 -5 3 -13 -1 -16
-10z"/>
<path d="M14300 3831 c0 -5 5 -13 10 -16 6 -3 10 -2 10 4 0 5 -4 13 -10 16 -5
3 -10 2 -10 -4z"/>
<path d="M14150 3820 c0 -5 5 -10 10 -10 6 0 10 5 10 10 0 6 -4 10 -10 10 -5
0 -10 -4 -10 -10z"/>
<path d="M14231 3821 c-7 -5 -11 -21 -9 -36 2 -21 9 -29 26 -30 27 -2 29 11 3
27 -15 9 -17 15 -9 25 13 17 7 25 -11 14z"/>
<path d="M14230 3735 c-17 -21 -9 -27 13 -10 10 7 14 16 9 19 -5 3 -15 -1 -22
-9z"/>
<path d="M8260 4300 c0 -5 5 -10 11 -10 5 0 7 5 4 10 -3 6 -8 10 -11 10 -2 0
-4 -4 -4 -10z"/>
<path d="M7910 4153 c0 -24 5 -43 10 -43 13 0 13 50 0 70 -7 11 -10 4 -10 -27z"/>
<path d="M12655 3137 c-4 -10 -5 -21 -1 -24 10 -10 18 4 13 24 -4 17 -4 17
-12 0z"/>
<path d="M11311 3088 c0 -18 4 -42 8 -53 7 -16 10 -12 18 25 11 50 9 60 -13
60 -9 0 -14 -11 -13 -32z"/>
<path d="M12650 3051 c0 -6 5 -13 10 -16 6 -3 10 1 10 9 0 9 -4 16 -10 16 -5
0 -10 -4 -10 -9z"/>
<path d="M11598 2985 c-3 -3 -41 -7 -84 -8 l-79 -2 -3 -38 c-2 -25 2 -45 13
-56 8 -10 17 -38 20 -62 16 -172 14 -164 44 -172 16 -4 21 2 26 24 4 16 15 34
26 39 10 6 19 17 19 25 0 8 7 15 16 15 27 0 45 64 39 143 -4 64 -22 107 -37
92z"/>
<path d="M11160 2786 c0 -19 5 -38 10 -41 6 -4 10 10 10 34 0 23 -4 41 -10 41
-5 0 -10 -15 -10 -34z"/>
<path d="M12594 2695 c-9 -22 1 -29 15 -11 8 10 9 16 1 21 -5 3 -13 -1 -16
-10z"/>
<path d="M12320 2630 c0 -5 5 -10 11 -10 5 0 7 5 4 10 -3 6 -8 10 -11 10 -2 0
-4 -4 -4 -10z"/>
<path d="M11480 2616 c0 -9 7 -12 20 -9 11 3 20 9 20 14 0 5 -9 9 -20 9 -11 0
-20 -6 -20 -14z"/>
<path d="M12490 2560 c20 -13 33 -13 25 0 -3 6 -14 10 -23 10 -15 0 -15 -2 -2
-10z"/>
<path d="M12225 2550 c4 -6 11 -8 16 -5 14 9 11 15 -7 15 -8 0 -12 -5 -9 -10z"/>
<path d="M11780 2505 c0 -5 11 -11 25 -11 14 -1 25 4 25 11 0 7 -11 12 -25 11
-14 0 -25 -5 -25 -11z"/>
<path d="M11840 2506 c0 -2 11 -6 25 -8 14 -3 25 -1 25 3 0 5 -11 9 -25 9 -14
0 -25 -2 -25 -4z"/>
<path d="M11230 2482 c0 -15 22 -31 36 -25 18 7 5 33 -17 33 -10 0 -19 -4 -19
-8z"/>
<path d="M11332 2479 c-10 -4 -2 -8 23 -12 59 -10 145 -8 145 2 0 11 -142 19
-168 10z"/>
<path d="M11232 2429 c2 -7 10 -15 17 -17 8 -3 12 1 9 9 -2 7 -10 15 -17 17
-8 3 -12 -1 -9 -9z"/>
<path d="M11946 2374 c-9 -24 -8 -27 13 -21 13 3 17 0 15 -12 -4 -17 11 -49
20 -41 2 3 6 21 8 40 2 29 0 34 -14 32 -10 -2 -18 2 -18 8 0 16 -17 12 -24 -6z"/>
<path d="M11757 2353 c-4 -3 -7 -11 -7 -17 0 -6 5 -5 12 2 6 6 9 14 7 17 -3 3
-9 2 -12 -2z"/>
<path d="M12016 2335 c4 -8 10 -15 14 -15 4 0 10 7 14 15 4 10 -1 15 -14 15
-13 0 -18 -5 -14 -15z"/>
<path d="M11795 2308 c-16 -6 -36 -12 -42 -14 -18 -5 -16 -46 2 -70 14 -18 14
-18 15 7 0 29 28 59 53 59 9 0 17 7 17 15 0 17 -3 17 -45 3z"/>
<path d="M11138 2304 c-5 -4 -8 -19 -8 -33 0 -18 3 -22 11 -14 6 6 9 21 7 33
-1 12 -6 18 -10 14z"/>
<path d="M11157 2228 c-6 -19 2 -127 13 -168 l10 -35 -4 43 c-3 25 0 40 5 36
6 -3 3 10 -5 30 -9 21 -13 50 -9 71 5 34 0 48 -10 23z"/>
<path d="M12030 1750 c0 -5 5 -10 10 -10 6 0 10 5 10 10 0 6 -4 10 -10 10 -5
0 -10 -4 -10 -10z"/>
<path d="M11837 1703 c-4 -3 -7 -11 -7 -17 0 -6 5 -5 12 2 6 6 9 14 7 17 -3 3
-9 2 -12 -2z"/>
<path d="M11850 1651 c0 -5 -10 -12 -22 -14 -20 -4 -19 -4 5 -6 18 -1 27 4 27
14 0 8 -2 15 -5 15 -3 0 -5 -4 -5 -9z"/>
<path d="M11842 1575 c1 -14 6 -25 10 -25 4 0 8 11 8 25 0 14 -4 25 -10 25 -5
0 -9 -11 -8 -25z"/>
<path d="M11942 1528 c-8 -8 -9 -15 -1 -25 16 -19 29 -16 29 6 0 25 -13 34
-28 19z"/>
<path d="M15296 2855 c-3 -13 -19 -36 -34 -50 -24 -23 -25 -25 -7 -25 11 0 37
14 58 31 21 17 44 28 52 25 23 -8 30 16 10 31 -11 7 -31 13 -46 13 -20 0 -28
-6 -33 -25z"/>
<path d="M14785 2340 c3 -5 8 -10 11 -10 2 0 4 5 4 10 0 6 -5 10 -11 10 -5 0
-7 -4 -4 -10z"/>
<path d="M14755 2230 c3 -5 8 -10 11 -10 2 0 4 5 4 10 0 6 -5 10 -11 10 -5 0
-7 -4 -4 -10z"/>
<path d="M14675 2210 c-3 -5 -1 -10 4 -10 6 0 11 5 11 10 0 6 -2 10 -4 10 -3
0 -8 -4 -11 -10z"/>
<path d="M13755 1729 c-4 -6 -5 -12 -2 -15 2 -3 7 2 10 11 7 17 1 20 -8 4z"/>
<path d="M13816 1683 c-11 -11 -6 -23 9 -23 8 0 15 4 15 9 0 13 -16 22 -24 14z"/>
<path d="M13985 1390 c-3 -5 1 -10 9 -10 9 0 16 5 16 10 0 6 -4 10 -9 10 -6 0
-13 -4 -16 -10z"/>
<path d="M13420 1255 c0 -8 3 -14 8 -13 4 1 18 -4 32 -11 l25 -14 -25 26 c-28
30 -40 34 -40 12z"/>
<path d="M13375 1221 c-3 -5 -1 -12 5 -16 5 -3 10 1 10 9 0 18 -6 21 -15 7z"/>
<path d="M13435 1170 c-3 -5 -1 -10 4 -10 6 0 11 5 11 10 0 6 -2 10 -4 10 -3
0 -8 -4 -11 -10z"/>
<path d="M9230 966 c0 -19 24 -86 32 -86 4 0 8 6 8 13 -1 14 -39 86 -40 73z"/>
<path d="M10746 7605 c-11 -31 -19 -124 -11 -142 5 -10 7 -26 6 -35 -2 -14 4
-16 30 -13 49 6 54 17 36 77 -9 29 -20 68 -25 87 -9 38 -26 51 -36 26z"/>
<path d="M10830 7480 c0 -5 5 -10 11 -10 5 0 7 5 4 10 -3 6 -8 10 -11 10 -2 0
-4 -4 -4 -10z"/>
<path d="M7492 600 c0 -14 2 -19 5 -12 2 6 2 18 0 25 -3 6 -5 1 -5 -13z"/>
<path d="M6133 438 c26 -106 60 -131 71 -55 9 61 1 77 -41 77 -32 0 -35 -2
-30 -22z"/>
<path d="M5555 220 c3 -5 8 -10 11 -10 2 0 4 5 4 10 0 6 -5 10 -11 10 -5 0 -7
-4 -4 -10z"/>
<path d="M4604 202 c-17 -43 -14 -71 12 -91 15 -12 38 -21 53 -21 28 0 112 37
146 64 19 14 16 15 -39 14 -48 -1 -62 3 -75 19 -22 28 -87 37 -97 15z"/>
<path d="M4955 113 c11 -74 36 -87 41 -20 4 46 -5 67 -28 67 -19 0 -20 -4 -13
-47z"/>
<path d="M4490 119 c0 -24 23 -21 28 4 2 10 -3 17 -12 17 -10 0 -16 -9 -16
-21z"/>
<path d="M10448 33 c6 -2 18 -2 25 0 6 3 1 5 -13 5 -14 0 -19 -2 -12 -5z"/>
<path d="M9850 10 c-10 -7 3 -10 44 -10 33 0 57 2 55 4 -11 9 -86 14 -99 6z"/>
</g>
</svg>
